<?xml version="1.0" encoding="UTF-8"?>
<svg width="300px" height="345px" viewBox="0 0 300 345" version="1.1" xmlns="http://www.w3.org/2000/svg" xmlns:xlink="http://www.w3.org/1999/xlink">
    <title>pic_3</title>
    <defs>
        <polyline id="path-1" points="0.017 26.42 8.484 70.677 74.713 47.158 65.996 0.657"></polyline>
    </defs>
    <g id="页面-1" stroke="none" stroke-width="1" fill="none" fill-rule="evenodd">
        <g id="登录页授权" transform="translate(-34.000000, -91.000000)">
            <g id="pic_3" transform="translate(34.000000, 91.443000)">
                <g id="编组">
                    <path d="M38.3998,297.332 C36.6838,294.501 33.4838,297.026 31.0428,297.197 C28.3478,297.387 29.1208,295.877 29.6118,293.611 C30.1048,291.346 33.7408,290.779 37.1748,287.947 C40.6078,285.116 36.4388,279.643 33.2508,280.02 C30.0628,280.397 30.5538,282.946 28.3478,283.04 C25.3978,283.166 25.5248,281.813 25.6498,280.02 C25.9108,276.207 27.3658,273.036 26.3848,270.203 C25.7558,268.387 23.4268,266.745 21.1798,266.088 C21.1638,266.075 21.1478,266.058 21.1308,266.051 C20.6558,265.842 20.0858,265.763 19.4668,265.787 C18.8488,265.763 18.2778,265.842 17.8018,266.051 C17.7868,266.058 17.7688,266.075 17.7538,266.088 C15.5078,266.745 13.1788,268.387 12.5488,270.203 C11.5688,273.036 13.0238,276.207 13.2848,280.02 C13.4068,281.813 13.5358,283.166 10.5878,283.04 C8.3788,282.946 8.8718,280.397 5.6828,280.02 C2.4958,279.643 -1.6742,285.116 1.7608,287.947 C5.1928,290.779 8.8308,291.346 9.3208,293.611 C9.8118,295.877 10.5878,297.387 7.8898,297.197 C5.4478,297.026 2.2498,294.501 0.5348,297.332 C-1.1842,300.165 1.0238,308.309 10.3408,310.008 C15.5878,310.965 17.7268,313.458 19.4668,313.235 C21.2078,313.458 23.3448,310.965 28.5908,310.008 C37.9098,308.309 40.1178,300.165 38.3998,297.332" id="Fill-1" fill="#E8F5FE"></path>
                    <polygon id="Fill-3" fill="#EDF1F4" points="19.2 334.416 19.732 334.416 19.732 276.278 19.2 276.278"></polygon>
                    <polygon id="Fill-5" fill="#EDF1F4" points="19.7055 295.585 19.3475 295.259 30.1245 287.081 30.4835 287.407"></polygon>
                    <polygon id="Fill-6" fill="#EDF1F4" points="19.7055 308.5635 19.3475 308.2395 28.4295 301.3475 28.7885 301.6735"></polygon>
                    <polygon id="Fill-7" fill="#EDF1F4" points="19.227 295.585 19.583 295.259 8.808 287.081 8.449 287.407"></polygon>
                    <polygon id="Fill-8" fill="#EDF1F4" points="19.227 308.5635 19.583 308.2395 10.503 301.3475 10.146 301.6735"></polygon>
                    <path d="M75.2446,272.832 C73.2136,269.223 69.4366,270.448 66.5526,270.667 C63.3646,270.907 65.3926,268.98 65.9736,266.094 C66.5536,263.205 69.7386,262.482 73.7946,258.871 C77.8506,255.26 72.9246,248.281 69.1596,248.763 C65.3926,249.243 65.9736,252.493 63.3646,252.613 C59.8836,252.774 60.0336,251.049 60.1796,248.763 C60.4866,243.901 62.2066,239.856 61.0476,236.246 C60.3056,233.93 57.5556,231.836 54.8996,230.999 C54.8816,230.981 54.8596,230.96 54.8426,230.951 C54.2806,230.684 53.6066,230.582 52.8766,230.614 C52.1446,230.582 51.4716,230.684 50.9096,230.951 C50.8906,230.96 50.8706,230.982 50.8516,230.999 C48.1956,231.837 45.4486,233.93 44.7036,236.246 C43.5446,239.856 45.2646,243.901 45.5716,248.763 C45.7186,251.049 45.8676,252.774 42.3846,252.613 C39.7776,252.493 40.3596,249.243 36.5936,248.763 C32.8266,248.281 27.9006,255.26 31.9576,258.871 C36.0126,262.482 39.1976,263.205 39.7776,266.094 C40.3586,268.98 42.3846,270.907 39.1976,270.667 C36.3146,270.448 32.5366,269.223 30.5086,272.832 C28.4806,276.443 31.0866,285.831 42.0966,287.996 C48.2936,289.217 50.8206,289.406 52.8766,289.124 C54.9326,289.406 57.4566,289.217 63.6556,287.996 C74.6626,285.831 77.2726,276.443 75.2446,272.832" id="Fill-9" fill="#D0EAFF"></path>
                    <polygon id="Fill-10" fill="#EDF1F4" points="52.584 334.416 53.166 334.416 53.166 243.468 52.584 243.468"></polygon>
                    <polygon id="Fill-11" fill="#EDF1F4" points="53.1366 264.5088 52.7476 264.1528 64.4926 255.2388 64.8826 255.5958"></polygon>
                    <polygon id="Fill-12" fill="#EDF1F4" points="53.1366 283.7647 52.7476 283.4097 62.6426 275.8997 63.0346 276.2537"></polygon>
                    <polygon id="Fill-13" fill="#EDF1F4" points="52.6137 264.5088 53.0047 264.1528 41.2597 255.2388 40.8697 255.5958"></polygon>
                    <polygon id="Fill-14" fill="#EDF1F4" points="52.6137 283.7647 53.0047 283.4097 43.1077 275.8997 42.7157 276.2537"></polygon>
                    <path d="M145.0195,104.5537 C145.0195,104.5537 136.0835,108.2707 147.0255,135.1317 C157.9485,161.9947 163.5695,158.4857 163.5695,158.4857 L170.8165,157.4917 L183.4805,139.8747 L175.4215,133.3477 L173.9435,134.0277 C173.9435,134.0277 171.9305,133.2617 171.5585,131.4077 C171.1965,129.5427 167.0605,121.8457 163.1545,105.9807 C161.3505,98.6547 146.7345,103.8247 145.0195,104.5537" id="Fill-15" fill="#FEE290"></path>
                    <path d="M181.5092,140.2622 C181.5092,140.2622 196.7452,148.5882 206.0072,149.6122 C212.2132,150.3012 199.3982,157.2222 186.6542,158.5952 C173.9092,159.9742 168.9622,159.4092 166.2132,154.9242 C163.4552,150.4442 181.5092,140.2622 181.5092,140.2622" id="Fill-16" fill="#EFC1AF"></path>
                    <path d="M159.5756,169.4532 L125.7796,168.7202 L111.7266,121.6772 C111.7266,121.6772 102.6156,93.2282 120.0876,92.8662 C137.5516,92.5042 157.6826,92.5042 157.6826,92.5042 C157.6826,92.5042 169.4466,102.7112 159.5756,169.4532" id="Fill-17" fill="#FFEAAC"></path>
                    <path d="M154.8212,61.8277 C154.8212,61.8277 157.2052,85.9767 151.7542,88.8087 C151.5132,88.9287 147.6342,89.1017 145.6112,90.9267 C143.7022,92.6447 143.6142,94.5847 142.9422,95.3487 C142.7122,95.5967 141.9342,97.2227 141.4402,97.6567 C139.3822,99.4587 137.7112,97.1557 136.5522,96.6307 C133.7252,95.3407 132.9722,98.7617 132.5502,97.5587 C132.2482,96.7277 129.6062,95.4827 130.2702,94.4437 C131.6832,92.2217 135.1902,83.1547 135.0402,81.3457 C134.6092,76.0577 128.8892,66.2737 138.1362,60.3287 C140.8312,58.5947 154.1562,60.2727 154.8212,61.8277" id="Fill-18" fill="#EFC1AF"></path>
                    <polygon id="Fill-19" fill="#FEE261" points="140.2563 98.4073 139.4253 104.2393 128.6963 95.3283 129.9333 93.1503"></polygon>
                    <polygon id="Fill-20" fill="#FEE261" points="143.4018 94.6431 145.0638 96.0481 145.1608 102.2331 140.9278 98.5401"></polygon>
                    <path d="M154.5121,71.7173 C154.4931,72.1543 156.0581,76.0213 156.3401,76.7373 C156.6341,77.4583 157.0301,78.3583 156.8961,78.6143 C156.7641,78.8673 156.0311,79.5963 155.7031,79.8613 C155.3771,80.1263 154.1211,81.2313 153.9091,79.3843 C153.6971,77.5413 154.5121,71.7173 154.5121,71.7173" id="Fill-21" fill="#EFC1AF"></path>
                    <path d="M137.7363,59.2954 C142.2183,55.7884 151.2323,56.7414 157.3743,62.6284 C157.3743,62.6284 157.1173,64.0634 154.9963,65.2214 C154.9963,65.2214 151.4173,60.6034 145.5943,61.2534 C139.4783,61.9424 143.6863,64.9034 142.2533,66.3894 C141.0593,67.6434 139.9383,68.7044 139.9383,68.7044 L139.0003,72.0974 L137.4103,72.2744 C137.4103,72.2744 136.5523,68.6184 135.7303,69.6974 C134.7593,71.0014 135.1843,73.7414 135.2003,74.1354 C135.2363,74.5224 135.2903,75.1734 135.0943,75.2794 C134.9443,75.3624 135.3783,77.4664 134.9183,81.01552 C134.1663,81.0284 133.2383,79.9854 132.7883,77.7354 C131.7793,72.6674 132.2663,63.5784 137.7363,59.2954" id="Fill-22" fill="#161546"></path>
                    <path d="M136.0678,69.4727 C134.6968,69.4107 133.5318,70.4717 133.4688,71.8417 C133.4068,73.2197 134.4658,74.3777 135.8468,74.4447" id="Fill-23" fill="#EFC1AF"></path>
                    <polygon id="Fill-24" fill="#FAD4BE" points="149.996 327.948 158.692 327.948 158.692 314.683 149.996 314.683"></polygon>
                    <polygon id="Fill-25" fill="#FAD4BE" points="88.227 327.948 95.271 327.948 95.271 314.683 88.227 314.683"></polygon>
                    <path d="M150.4023,331.8194 L156.7643,331.8194 L156.7643,329.8834 L159.5233,331.8194 L175.5533,331.8194 C175.5533,331.8194 175.2713,329.1944 164.4983,328.7784 C161.7313,328.6734 159.7943,324.9084 159.7943,324.9084 C159.7943,324.9084 158.4173,323.6654 156.3493,326.5644 C155.8083,327.3214 149.9953,325.8774 149.9953,325.8774 C149.9953,325.8774 149.4363,329.7424 150.4023,331.8194" id="Fill-26" fill="#161546"></path>
                    <path d="M158.4447,168.3584 L159.1947,240.1994 L144.0027,248.5904 C144.0027,248.5904 134.8907,231.4504 133.7507,209.5674 C132.6197,187.6854 158.4447,168.3584 158.4447,168.3584" id="Fill-27" fill="#0064C5"></path>
                    <path d="M158.4447,168.3584 L125.0197,247.1374 L118.9387,255.5244 L95.8997,320.9694 L87.1947,318.4824 C87.1947,318.4824 84.0137,282.5144 93.1317,267.1904 C102.2367,251.8734 106.7977,243.4854 106.7977,243.4854 L126.9197,166.1654 L158.4447,168.3584 Z" id="Fill-28" fill="#057CDD"></path>
                    <path d="M149.2182,322.2129 C146.4692,308.1249 140.4162,283.5489 140.2042,274.4849 C139.8322,257.7119 142.4832,246.0409 142.4832,246.0409 L159.1952,240.1989 L159.2662,322.2129 L149.2182,322.2129 Z" id="Fill-29" fill="#0064C5"></path>
                    <path d="M96.2177,334.2363 L91.9127,334.2363 L90.5517,332.8813 L89.9697,329.5573 L88.6087,330.9263 L84.1107,326.4333 C84.8977,324.2813 88.0157,321.9393 88.0157,321.9393 C88.0157,321.9393 91.1107,327.0733 92.0197,326.9193 C95.5367,326.3373 95.6427,328.1913 95.6427,328.1913 C95.6427,328.1913 94.3527,332.1993 96.2177,334.2363" id="Fill-30" fill="#161546"></path>
                    <path d="M91.7543,329.3711 C92.5763,330.2941 93.7253,331.2141 95.0773,331.2641 C105.8413,331.6771 106.1253,334.3041 106.1253,334.3041 L91.7543,334.3041 L91.7543,329.3711 Z" id="Fill-31" fill="#161546"></path>
                    <path d="M204.2856,150.6475 L214.4906,144.7305 L221.0686,145.4815 C221.0686,145.4815 221.8086,147.0225 219.5656,148.1465 C217.3196,149.2725 214.4906,149.6125 214.4906,149.6125 L210.1176,156.1305 C210.1176,156.1305 214.3876,158.6625 215.5176,158.1065 C216.6496,157.5495 221.0946,155.4455 221.0946,155.4455 C221.0946,155.4455 218.5236,160.9335 215.7746,160.9335 C213.0346,160.9335 210.1176,160.9335 208.0596,160.5895 C206.0076,160.2435 205.3196,154.4215 203.2586,153.3875 C201.2006,152.3605 204.2856,150.6475 204.2856,150.6475" id="Fill-32" fill="#EFC1AF"></path>
                    <polygon id="Fill-33" fill="#FAD4BE" points="210.8686 157.4077 213.9006 158.4727 226.3886 154.3587 221.5096 145.5837 219.8666 148.1627 215.5096 147.9907 210.0296 155.6577"></polygon>
                    <path d="M224.6391,112.9453 L199.2731,89.7543 C199.2731,89.7543 197.5861,91.7933 198.2231,93.6533 C199.9631,98.6983 206.1951,108.8273 210.1431,113.0993 C215.5351,118.9423 222.0561,123.6213 222.0561,123.6213 L224.6391,112.9453 Z" id="Fill-34" fill="#FAD4BE"></path>
                    <path d="M199.2387,96.0132 L196.0397,93.2862 C196.0397,93.2862 194.4477,92.0622 193.1327,90.0302 C191.8137,87.9912 192.5667,86.0172 194.2727,84.3912 C195.9867,82.7642 197.2677,82.5792 197.2677,82.5792 C197.2677,82.5792 200.0257,83.7982 199.6727,86.2682 C199.3167,88.7302 201.8087,94.1742 200.8657,94.5662 C199.9277,94.9612 199.2387,96.0132 199.2387,96.0132" id="Fill-35" fill="#FAD4BE"></path>
                    <polygon id="Fill-36" fill="#FAD4BE" points="198.4516 83.0659 195.2626 79.6329 192.1606 76.5699 191.7616 77.4659 193.6626 79.9459 194.6786 85.1289 195.9336 84.4399"></polygon>
                    <polygon id="Fill-37" fill="#FAD4BE" points="192.5668 81.2178 189.1468 79.4278 188.5178 80.1798 191.5858 82.5608 193.7948 86.0488 195.9338 84.4398"></polygon>
                    <polygon id="Fill-38" fill="#FAD4BE" points="187.8725 81.73 190.6915 82.986 192.6825 83.565 194.0415 85.39 192.7685 87.201 191.3545 85.186 187.9265 82.906"></polygon>
                    <polygon id="Fill-39" fill="#FAD4BE" points="187.2533 84.7622 192.6453 86.1412 193.5283 87.5022 192.7173 88.7972 190.5333 87.2802 187.6353 85.6502"></polygon>
                    <path d="M202.4565,95.9419 C200.7135,94.1699 201.1025,91.5369 201.1025,91.5369 C201.1025,91.5369 201.8905,84.9469 200.9255,83.8649 C199.9535,82.7779 199.3635,79.9619 199.3635,79.9619 C199.3635,79.9619 198.5325,78.9159 198.1775,81.5799 C197.9485,83.3169 198.2835,84.8769 198.2835,84.8769 C198.2835,84.8769 196.4995,88.4699 196.6405,89.6349 C196.9045,92.0349 201.2345,96.2559 201.2345,96.2559 C201.2345,96.2559 202.6845,96.1669 202.4565,95.9419" id="Fill-40" fill="#FAD4BE"></path>
                    <path d="M254.978,106.3433 L226.776,111.5533 L225.699,113.3913 L224.055,112.0533 L220.484,122.8603 L228.607,128.9673 L266.998,121.1513 C266.998,121.1513 275.384,117.2223 278.23,106.2463 C280.289,98.2923 257.321,106.0123 254.978,106.3433" id="Fill-41" fill="#C6D5FF"></path>
                    <path d="M268.4027,97.9214 C268.0117,101.4834 269.3217,104.8944 271.2737,105.4254 C273.1567,105.7874 275.0407,106.1494 276.9297,106.5124 C278.9457,106.7504 281.4197,104.0634 282.3927,100.6134 C283.9657,94.9084 285.5477,89.2034 287.1197,83.4984 C288.0937,80.0824 288.0847,72.8454 285.4767,70.2074 C283.0717,67.8464 279.9177,67.2364 276.8147,68.5404 C273.4137,70.0204 270.7167,76.7364 270.3457,80.2684 C269.7027,86.1504 269.0477,92.0354 268.4027,97.9214" id="Fill-42" fill="#FAD4BE"></path>
                    <path d="M252.476,151.1465 L220.688,152.0835 C220.688,152.0835 244.24,166.2625 252.794,159.1125 C261.35,151.9585 252.476,151.1465 252.476,151.1465" id="Fill-43" fill="#FAD4BE"></path>
                    <path d="M267.2191,340.6748 L267.2881,343.9018 L285.2291,343.5208 L285.4671,334.8408 L274.6411,334.7088 C274.6411,334.7088 268.9151,340.1758 267.2191,340.6748" id="Fill-44" fill="#161546"></path>
                    <path d="M280.4565,188.2159 C280.4565,188.2159 272.2985,241.5869 263.1085,265.1259 C254.9595,285.9879 244.3795,259.3029 244.3795,259.3029 L258.1585,169.7539 L283.9395,167.2439 C283.9395,167.2439 285.7235,167.8619 280.4565,188.2159" id="Fill-45" fill="#0064C5"></path>
                    <path d="M263.558,171.937 L261.103,206.285 L265.645,208.825 C265.645,208.825 269.303,259.695 270.214,262.254 C275.366,276.893 287.704,267.781 289.312,262.833 C290.921,257.883 292.989,221.454 291.858,194.934 L290.727,168.406 L263.558,171.937 Z" id="Fill-46" fill="#057CDD"></path>
                    <path d="M271.0092,248.5635 C271.0092,248.5635 269.1272,257.6795 269.7992,274.8285 C270.2142,285.6955 271.8832,314.4585 274.3412,335.8435 C274.4822,337.1575 285.1582,335.9325 285.1582,335.9325 C285.1582,335.9325 290.2142,266.2395 290.4962,252.7615 C290.5842,248.7005 279.3512,238.7855 271.0092,248.5635" id="Fill-47" fill="#057CDD"></path>
                    <path d="M267.5541,100.9834 L284.3361,97.2284 L292.9541,106.9184 C292.9541,106.9184 299.3421,115.4814 299.4761,134.7114 C299.6171,153.9964 293.0851,189.7134 293.0851,189.7134 L254.6591,177.3644 C254.6591,177.3644 256.4521,109.6714 267.5541,100.9834" id="Fill-48" fill="#C6D5FF"></path>
                    <polygon id="Fill-49" fill="#9CB2FF" points="269.6928 101.545 272.0608 108.486 287.1908 100.568 285.6178 96.073"></polygon>
                    <polygon id="Fill-50" fill="#9CB2FF" points="268.4125 98.3535 268.7565 100.1655 265.3605 105.0965 265.4515 101.0495"></polygon>
                    <path d="M248.6772,258.0069 C248.6772,258.0069 251.6982,258.9169 261.2432,259.0589 C270.7522,259.1959 250.6202,336.1149 250.6202,336.1149 L237.0202,331.4439 L245.1052,254.2689 L248.6772,258.0069 Z" id="Fill-51" fill="#0064C5"></path>
                    <path d="M249.559,335.3027 L248.418,342.0317 L241.588,342.1777 C241.588,342.1777 236.462,342.2827 235.181,342.3087 C233.9,342.3407 226.211,342.5037 226.211,342.5037 L226.158,340.0377 C226.158,340.0377 236.755,336.1197 238.805,331.9697 C240.856,327.8237 249.559,335.3027 249.559,335.3027" id="Fill-52" fill="#161546"></path>
                    <path d="M281.0932,65.1158 L281.8712,61.0948 L280.2092,60.7768 L275.8342,59.9368 L273.1922,59.4258 C270.2772,58.8678 267.4472,60.7768 266.8812,63.6968 L266.1142,67.7158 L267.7832,68.0338 L272.1572,68.8748 L274.8002,69.3848 C277.7172,69.9498 280.5352,68.0338 281.0932,65.1158" id="Fill-53" fill="#161546"></path>
                    <path d="M284.7172,91.1162 C284.2212,93.7152 281.7112,95.4112 279.1132,94.9082 L268.4562,92.8562 C265.8572,92.3582 264.1522,89.8532 264.6552,87.2542 L268.7562,65.9202 C269.2502,63.3212 271.7702,61.6162 274.3692,62.1202 L285.0352,64.1702 C287.6252,64.6692 289.3302,67.1832 288.8342,69.7782 L284.7172,91.1162 Z" id="Fill-54" fill="#FAD4BE"></path>
                    <path d="M282.2065,61.1602 C284.0615,61.5192 285.5045,62.7832 286.1765,64.4052 L287.9875,64.7532 C290.2495,65.1852 291.7335,67.3772 291.2925,69.6402 L289.3465,79.7602 L286.4675,79.2022 L287.2545,75.0892 C287.5625,73.4972 286.5195,71.9572 284.9295,71.6522 L283.2495,71.3282 L278.8665,70.4892 L276.2245,69.9762 C273.2985,69.4202 271.3895,66.5972 271.9545,63.6762 L272.7865,59.3482 L282.2065,61.1602 Z" id="Fill-55" fill="#161546"></path>
                    <path d="M285.0522,81.6602 C285.3172,80.2722 286.6512,79.3712 288.0412,79.6362 L288.2502,79.6762 C289.6312,79.9412 290.5392,81.2802 290.2752,82.6632 L289.6842,85.7082 C289.4182,87.0952 288.0842,88.0052 286.6982,87.7402 L286.4862,87.6962 C285.4672,87.5022 284.6982,86.7152 284.4772,85.7612" id="Fill-56" fill="#FAD4BE"></path>
                    <path d="M103.3329,65.9995 C104.2409,65.9995 104.9769,65.2635 104.9769,64.3535 L104.9769,59.9645 L111.5619,59.9645 L104.9769,50.0875 L104.9769,32.1495 C104.9769,31.2415 104.2409,30.5035 103.3329,30.5035 L44.8429,30.5035 C43.9349,30.5035 43.1959,31.2415 43.1959,32.1495 L43.1959,64.3535 C43.1959,65.2635 43.9349,65.9995 44.8429,65.9995 L103.3329,65.9995 Z" id="Fill-57" fill="#1698FE"></path>
                    <polygon id="Fill-58" fill="#BEE3FF" points="53.237 54.324 94.209 54.324 94.209 52.493 53.237 52.493"></polygon>
                    <polygon id="Fill-59" fill="#BEE3FF" points="53.237 48.47 94.209 48.47 94.209 46.641 53.237 46.641"></polygon>
                    <polygon id="Fill-60" fill="#BEE3FF" points="53.237 42.617 94.209 42.617 94.209 40.789 53.237 40.789"></polygon>
                    <path d="M267.7397,32.5718 C267.7397,35.1178 265.6747,37.1838 263.1277,37.1838 L260.0547,37.1838 L260.0547,47.9398 L249.2987,37.1838 L202.9377,37.1838 C200.3907,37.1838 198.3257,35.1178 198.3257,32.5718 L198.3257,5.1688 C198.3257,2.6218 200.3907,0.5568 202.9377,0.5568 L263.1277,0.5568 C265.6747,0.5568 267.7397,2.6218 267.7397,5.1688 L267.7397,32.5718 Z" id="Fill-61" fill="#1698FE"></path>
                </g>
                <text id="WELCOME!" font-family="LucidaGrande, Lucida Grande" font-size="9.9134" font-weight="normal" letter-spacing="0.01" fill="#BEE3FF">
                    <tspan x="210.1084" y="19.880348">WE</tspan>
                    <tspan x="223.981989" y="19.880348" letter-spacing="-0.3766226">L</tspan>
                    <tspan x="228.891223" y="19.880348" letter-spacing="-0.1981814">C</tspan>
                    <tspan x="235.552068" y="19.880348">OME!</tspan>
                </text>
                <g id="编组" transform="translate(62.000000, 134.000000)">
                    <polyline id="Fill-62" fill="#808080" points="65.9965 0.6568 67.8975 2.9978 77.0245 48.4808 9.7025 71.9998 8.4845 70.6778 66.0315 1.1318"></polyline>
                    <polygon id="Fill-64" fill="#000000" points="0.017 26.42 8.484 70.677 74.712 47.158 65.996 0.657"></polygon>
                    <path d="M39.8559,59.2715 C40.7739,60.9775 46.6339,62.6515 46.6339,62.6515 L50.8059,57.9595 L48.1549,57.9595 L47.5689,56.6455 L46.2469,53.6855 L40.5549,55.8765 C40.5549,55.8765 39.2909,58.2295 39.8559,59.2715" id="Fill-66" fill="#EFC1AF"></path>
                    <path d="M48.5639,54.8443 L51.5929,53.0083 C51.5929,53.0083 52.2359,50.4383 47.9669,52.7333 C43.6989,55.0273 43.9039,54.6603 43.9039,54.6603 L45.6019,57.9193 L48.5639,54.8443 Z" id="Fill-68" fill="#EFC1AF"></path>
                </g>
                <g id="编组" transform="translate(62.000000, 134.000000)">
                    <mask id="mask-2" fill="white">
                        <use xlink:href="#path-1"></use>
                    </mask>
                    <g id="Clip-71"></g>
                    <path d="M67.33,24.6451 L6.583,46.9931 C4.683,47.6351 3.805,45.5831 3.163,43.6831 L-12.983,4.2791 C-13.625,2.3791 -12.595,0.2991 -10.695,-0.3429 L57.246,-23.2959 C59.145,-23.9379 61.226,-22.9079 61.868,-21.0079 L69.618,20.0231 C70.26,21.9231 69.23,24.0031 67.33,24.6451" id="Fill-70" fill="#808080" mask="url(#mask-2)"></path>
                </g>
                <g id="编组" transform="translate(74.000000, 92.000000)">
                    <path d="M40.0068,28.2178 L20.2658,58.4878 L17.6038,58.8558 L18.3638,61.4048 L4.0568,60.3078 L0.8998,47.9138 L28.6148,7.0708 C28.6148,7.0708 37.2508,-0.7782 51.4008,1.2278 C61.6588,2.6908 41.5278,25.6648 40.0068,28.2178" id="Fill-72" fill="#FFEAAC"></path>
                    <path d="M27.6254,78.5669 L24.8024,79.4749 C24.4344,79.5929 24.0364,79.3889 23.9174,79.0219 L22.0774,73.2999 C21.9594,72.9319 22.1634,72.5349 22.5314,72.4159 L25.3544,71.5079 C25.7224,71.3899 26.1204,71.5939 26.2384,71.9619 L28.0794,77.6829 C28.1974,78.0509 27.9934,78.4489 27.6254,78.5669" id="Fill-74" fill="#CCCCCC"></path>
                    <path d="M28.2377,80.2593 L25.2907,81.2073 C24.9567,81.3143 24.5957,81.1293 24.4887,80.7953 L23.0067,76.1893 C22.8997,75.8553 23.0847,75.4943 23.4187,75.3863 L26.3657,74.4383 C26.6997,74.3313 27.0607,74.5163 27.1677,74.8503 L28.6497,79.4563 C28.7577,79.7903 28.5717,80.1523 28.2377,80.2593 Z" id="Stroke-76" stroke="#CCCCCC" stroke-width="0.69"></path>
                    <path d="M17.6039,60.3076 L32.2659,101.0496 C32.2659,101.0496 29.0769,102.0306 27.2279,100.3786 C22.1989,95.9156 13.4399,83.7506 10.3919,77.0906 C6.2129,67.9716 3.9329,58.1266 3.9329,58.1266 L17.6039,60.3076 Z" id="Fill-78" fill="#EFC1AF"></path>
                    <path d="M195.4193,10.166 C195.4193,10.166 181.3573,37.242 187.0553,66.227 C187.5053,68.506 190.3183,70.029 190.3183,70.029 L193.9253,66.561 C193.9253,66.561 192.0853,33.549 195.4193,10.166" id="Fill-80" fill="#00369E"></path>
                    <path d="M214.2436,14.189 C214.2436,14.189 221.6566,18.006 218.1046,29.032 C212.0326,47.829 199.3696,63.31 196.9926,66.407 C194.6056,69.508 186.2796,77.011 180.7226,74.533 L175.1716,72.054 L174.7906,59.147 L178.4756,59.147 L180.6496,58.735 C180.6496,58.735 188.3486,46.522 194.7806,34.635 C201.2066,22.749 214.2436,14.189 214.2436,14.189" id="Fill-82" fill="#9CB2FF"></path>
                </g>
            </g>
        </g>
    </g>
</svg>