<?xml version="1.0" encoding="UTF-8"?>
<svg width="16px" height="16px" viewBox="0 0 16 16" version="1.1" xmlns="http://www.w3.org/2000/svg" xmlns:xlink="http://www.w3.org/1999/xlink">
    <!-- Generator: Sketch 63.1 (92452) - https://sketch.com -->
    <title>icon_shaixuan</title>
    <desc>Created with Sketch.</desc>
    <g id="列表新增搜索框（0911）✅" stroke="none" stroke-width="1" fill="none" fill-rule="evenodd">
        <g id="筛选结果展示" transform="translate(-339.000000, -103.000000)">
            <g id="编组-8" transform="translate(339.000000, 103.000000)">
                <rect id="矩形" fill="#D8D8D8" opacity="0" x="0" y="0" width="16" height="16"></rect>
                <path d="M6.77537632,11.7361516 L6.77537632,8.02907267 L6.77537632,8.02907267 C6.77537632,7.9402616 6.74325326,7.85444762 6.68493517,7.78746698 L2.75711323,3.27620726 L2.75711323,3.27620726 C2.62367809,3.12295169 2.63974572,2.89054296 2.79300129,2.75710782 C2.85998193,2.69878973 2.94579591,2.66666667 3.03460698,2.66666667 L3.03460698,2.66666667 L12.9653984,2.66666667 L12.9653984,2.66666667 C13.1686033,2.66666667 13.3333333,2.83139673 13.3333333,3.03460157 C13.3333333,3.12411283 13.3007028,3.21055429 13.2415527,3.27773715 L9.27135879,7.78709746 L9.27135879,7.78709746 C9.21220872,7.85428032 9.17957815,7.94072178 9.17957815,8.03023305 L9.17957815,14.3865076 L9.17957815,14.3865076" id="Rectangle-5-Copy" stroke="#007FFF" stroke-linecap="round" stroke-linejoin="round"></path>
            </g>
        </g>
    </g>
</svg>