<?xml version="1.0" encoding="UTF-8"?>
<svg width="44px" height="44px" viewBox="0 0 44 44" version="1.1" xmlns="http://www.w3.org/2000/svg" xmlns:xlink="http://www.w3.org/1999/xlink">
    <!-- Generator: Sketch 63.1 (92452) - https://sketch.com -->
    <title>icon_maillist</title>
    <desc>Created with Sketch.</desc>
    <g id="视觉稿" stroke="none" stroke-width="1" fill="none" fill-rule="evenodd">
        <g id="iPhone-11-Pro备份-12" transform="translate(-117.000000, -204.000000)" fill="#FF8E19">
            <g id="icon_maillist" transform="translate(117.000000, 204.000000)">
                <circle id="椭圆形备份-10" opacity="0.100000001" cx="22" cy="22" r="22"></circle>
                <g id="通讯录" transform="translate(10.000000, 12.000000)" fill-rule="nonzero">
                    <path d="M17.8604544,6.6643212 L23.6448874,6.6643212 C24.0992287,6.6643212 24.4413946,6.89514422 24.4413946,7.38254469 C24.4413946,7.87010629 24.0462965,8.10092932 23.5919552,8.10092932 L17.8604544,8.10092932 C17.4058982,8.10092932 17.0371453,7.87010629 17.0371453,7.38254469 C17.0371453,6.89511737 17.4058982,6.6643212 17.8604544,6.6643212 L17.8604544,6.6643212 Z M24.4262481,10.6740891 C24.4262481,11.1615432 24.0838674,11.3925274 23.6296603,11.3925274 L19.0870256,11.3925274 C18.6324694,11.3925274 18.2637166,11.1616238 18.2637166,10.6740891 C18.2637166,10.1866617 18.6324694,9.95589241 19.0870256,9.95589241 L23.6560324,9.95589241 C24.11032,9.95589241 24.4262481,10.1866617 24.4262481,10.6740891 L24.4262481,10.6740891 Z M20.2572272,18.1207432 C20.2572272,19.1891624 19.3894723,19.8428253 18.3228524,19.8428253 L2.41921325,19.8428253 C1.35275449,19.8428253 0.484972722,19.189243 0.484972722,18.1207432 L0.484972722,17.6564653 C0.484972722,16.6774749 1.20577434,15.8096395 2.12584377,15.4794242 L6.06401486,13.7240145 C6.06401486,13.7240145 7.13152098,13.395894 7.42373568,13.068418 C7.6181695,12.8502976 7.67816469,12.1311073 7.43171176,11.6590145 C7.18531255,11.1869754 5.18986833,8.58969942 5.18986833,6.41118126 C5.18986833,2.89789104 7.49919963,0.049730984 10.3477625,0.049730984 C13.1964328,0.049730984 15.5055761,2.89789104 15.5055761,6.41118126 C15.5055761,8.68573469 13.2663645,11.1897147 13.082297,11.8058604 C12.8980951,12.422033 12.8832171,12.9043309 13.0912667,13.1089967 C13.4148755,13.4270464 14.2477451,13.7505209 14.2477451,13.7505209 L18.6163293,15.4529179 C19.5364793,15.7832942 20.2572272,16.6775824 20.2572272,17.6565728 L20.2572272,18.1207432 L20.2572272,18.1207432 Z M23.6428463,14.4929412 L20.6064292,14.4929412 C20.1520073,14.4929412 19.7832276,14.2621181 19.7832276,13.774476 C19.7832276,13.2871292 20.1520073,13.0562793 20.6064292,13.0562793 L23.669299,13.0562793 C24.1237209,13.0562793 24.465484,13.2871023 24.465484,13.774476 C24.465484,14.2620107 24.0972414,14.4929143 23.6428463,14.4929143 L23.6428463,14.4929412 Z" id="形状"></path>
                </g>
            </g>
        </g>
    </g>
</svg>