<?xml version="1.0" encoding="UTF-8"?>
<svg width="44px" height="44px" viewBox="0 0 44 44" version="1.1" xmlns="http://www.w3.org/2000/svg" xmlns:xlink="http://www.w3.org/1999/xlink">
    <!-- Generator: Sketch 63.1 (92452) - https://sketch.com -->
    <title>icon_location</title>
    <desc>Created with Sketch.</desc>
    <g id="视觉稿" stroke="none" stroke-width="1" fill="none" fill-rule="evenodd">
        <g id="iPhone-11-Pro备份-12" transform="translate(-117.000000, -118.000000)">
            <g id="icon_location" transform="translate(117.000000, 118.000000)">
                <circle id="椭圆形备份-5" fill="#00BF7F" opacity="0.100000001" cx="22" cy="22" r="22"></circle>
                <g id="定位" transform="translate(12.000000, 9.000000)" fill-rule="nonzero">
                    <path d="M9.99162732,0.0512187852 C15.6794233,0.0512187852 19.8107938,4.17940646 19.8107938,9.8703853 C19.8107938,13.8680751 14.3808107,20.6380483 11.4684809,24.2760734 L11.4684809,24.2760734 L11.2520455,24.5434348 C10.9433067,24.9253797 10.4849728,25.144998 9.99481019,25.144998 C9.50146471,25.144998 9.04313084,24.9253797 8.73757493,24.5434348 L8.73757493,24.5434348 L8.5211395,24.2760734 C5.60244397,20.6380483 0.1724608,13.8680751 0.1724608,9.8703853 C0.1724608,4.4563165 4.57755852,0.0512187852 9.99162732,0.0512187852 Z M9.94070133,5.45892184 C7.93867354,5.45892184 6.31222489,7.08537049 6.31222489,9.08739828 C6.31222489,11.0894261 7.93867354,12.7158747 9.94070133,12.7158747 L9.94070133,12.7158747 C11.9427291,12.7158747 13.5691778,11.0894261 13.5691778,9.08739828 C13.5691778,7.14995203 12.0459688,5.56424483 10.1332315,5.46395721 Z" id="形状结合" fill="#00BF7F"></path>
                    <path d="M7.16523514,9.08739828 L7.16523514,9.0873987 C7.16523514,10.6202454 8.40785464,11.8628649 9.94070133,11.8628649 C11.473548,11.8628649 12.7161675,10.6202454 12.7161675,9.0873987 L12.7161675,9.08739866 C12.7161675,7.55455196 11.473548,6.31193246 9.94070133,6.31193246 C8.40785464,6.31193246 7.16523514,7.55455196 7.16523514,9.08739866 C7.16523514,9.08739868 7.16523514,9.08739871 7.16523514,9.08739874 L7.16523514,9.08739828 Z" id="路径" fill="#FFECE9"></path>
                </g>
            </g>
        </g>
    </g>
</svg>