<?xml version="1.0" encoding="UTF-8"?>
<svg width="44px" height="44px" viewBox="0 0 44 44" version="1.1" xmlns="http://www.w3.org/2000/svg" xmlns:xlink="http://www.w3.org/1999/xlink">
    <!-- Generator: Sketch 63.1 (92452) - https://sketch.com -->
    <title>icon_message</title>
    <desc>Created with Sketch.</desc>
    <g id="视觉稿" stroke="none" stroke-width="1" fill="none" fill-rule="evenodd">
        <g id="iPhone-11-Pro备份-12" transform="translate(-295.000000, -204.000000)" fill="#FF4929">
            <g id="icon_message" transform="translate(295.000000, 204.000000)">
                <circle id="椭圆形备份-11" opacity="0.100000001" cx="22" cy="22" r="22"></circle>
                <path d="M32,14 C33.1045695,14 34,14.8954305 34,16 L34,28 C34,29.1045695 33.1045695,30 32,30 L12,30 C10.8954305,30 10,29.1045695 10,28 L10,16 C10,14.8954305 10.8954305,14 12,14 L32,14 Z M30.2418757,17.5776204 C30.0261601,17.0770804 29.4762738,16.8605252 29.0136702,17.0939309 L29.0136702,17.0939309 L21.8286377,20.719 L14.6437046,17.0939309 C14.181101,16.8605252 13.6312147,17.0770804 13.4154991,17.5776204 C13.1997836,18.0781603 13.3999258,18.6731408 13.8625294,18.9065464 L13.8625294,18.9065464 L21.4010898,22.7101108 C21.5398113,22.7801024 21.6863815,22.8096323 21.8286874,22.8032094 C21.9715022,22.8095297 22.1178044,22.7799809 22.2562851,22.7101108 L22.2562851,22.7101108 L29.7948455,18.9065464 C30.257449,18.6731408 30.4575912,18.0781603 30.2418757,17.5776204 Z" id="形状结合"></path>
            </g>
        </g>
    </g>
</svg>