<?xml version="1.0" encoding="UTF-8"?>
<svg width="26px" height="26px" viewBox="0 0 26 26" version="1.1" xmlns="http://www.w3.org/2000/svg" xmlns:xlink="http://www.w3.org/1999/xlink">
    <!-- Generator: Sketch 63.1 (92452) - https://sketch.com -->
    <title>icon_order</title>
    <desc>Created with Sketch.</desc>
    <g id="视觉稿" stroke="none" stroke-width="1" fill="none" fill-rule="evenodd">
        <g id="iPhone-11-Pro备份-12" transform="translate(-36.000000, -403.000000)">
            <g id="icon_order" transform="translate(36.000000, 403.000000)">
                <rect id="矩形" fill="#D8D8D8" opacity="0" x="0" y="0" width="26" height="26"></rect>
                <g id="编组-6备份" transform="translate(3.714286, 2.785714)">
                    <path d="M17.7667306,-7.68081251e-14 L1.57892207,-7.68081251e-14 C0.681456595,-7.68081251e-14 3.91570834e-14,0.718907521 3.91570834e-14,1.59617579 L3.91570834e-14,18.9212155 C3.91570834e-14,19.7984838 0.707171939,20.5173913 1.57892207,20.5173913 L17.7384438,20.5173913 C18.6359092,20.5173913 19.3970834,19.7984838 19.3970834,18.9212155 L19.3970834,1.59617579 C19.4253703,0.718907521 18.6641961,-7.68081251e-14 17.7667306,-7.68081251e-14 Z" id="形状" stroke="#111110" stroke-width="2" fill-rule="nonzero"></path>
                    <g id="编组-5" transform="translate(4.612856, 4.140317)" fill="#007FFF">
                        <rect id="矩形" x="0" y="10.173913" width="10.173913" height="1.69565217" rx="0.847826087"></rect>
                        <rect id="矩形备份" x="0" y="5.08695652" width="10.173913" height="1.69565217" rx="0.847826087"></rect>
                        <rect id="矩形备份-9" x="0" y="0" width="10.173913" height="1.69565217" rx="0.847826087"></rect>
                    </g>
                </g>
            </g>
        </g>
    </g>
</svg>