<?xml version="1.0" encoding="UTF-8"?>
<svg width="44px" height="44px" viewBox="0 0 44 44" version="1.1" xmlns="http://www.w3.org/2000/svg" xmlns:xlink="http://www.w3.org/1999/xlink">
    <!-- Generator: Sketch 63.1 (92452) - https://sketch.com -->
    <title>icon_task</title>
    <desc>Created with Sketch.</desc>
    <g id="视觉稿" stroke="none" stroke-width="1" fill="none" fill-rule="evenodd">
        <g id="iPhone-11-Pro备份-12" transform="translate(-295.000000, -118.000000)" fill="#007FFF">
            <g id="icon_task" transform="translate(295.000000, 118.000000)">
                <circle id="椭圆形备份-9" opacity="0.100000001" cx="22" cy="22" r="22"></circle>
                <g id="Shield-check" transform="translate(12.000000, 10.000000)">
                    <path d="M10.7371541,0.263216401 L20,2 L20,13.6037618 C20,17.2717326 18.110433,20.6809794 15,22.625 L11.0599979,25.0875013 C10.4114573,25.4928392 9.58854269,25.4928392 8.94000212,25.0875013 L5,22.625 C1.88956698,20.6809794 4.4919687e-16,17.2717326 0,13.6037618 L0,2 L9.26284586,0.263216401 C9.75003699,0.171868065 10.249963,0.171868065 10.7371541,0.263216401 Z M14.5989586,8.609375 C14.1197919,8.13020833 13.4010419,8.13020833 12.9218752,8.609375 L12.9218752,8.609375 L8.96875024,12.5625 L7.41145857,11.0052083 C6.99218774,10.5260417 6.21354191,10.5260417 5.73437524,11.0052083 C5.25520857,11.484375 5.25520857,12.203125 5.73437524,12.6822917 L5.73437524,12.6822917 L8.13020857,15.078125 C8.36979191,15.3177083 8.66927107,15.4375 8.96875024,15.4375 C9.26822941,15.4375 9.56770857,15.3177083 9.80729191,15.078125 L9.80729191,15.078125 L14.5989586,10.2864583 C15.0781252,9.80729167 15.0781252,9.08854167 14.5989586,8.609375 Z" id="形状结合"></path>
                </g>
            </g>
        </g>
    </g>
</svg>