<?xml version="1.0" encoding="UTF-8"?>
<svg width="40px" height="40px" viewBox="0 0 40 40" version="1.1" xmlns="http://www.w3.org/2000/svg" xmlns:xlink="http://www.w3.org/1999/xlink">
    <!-- Generator: Sketch 63.1 (92452) - https://sketch.com -->
    <title>icon_biangeng</title>
    <desc>Created with Sketch.</desc>
    <g id="访客预约（0914）✅" stroke="none" stroke-width="1" fill="none" fill-rule="evenodd">
        <g id="会议室信息变更" transform="translate(-20.000000, -111.000000)">
            <g id="icon_biangeng" transform="translate(20.000000, 111.000000)">
                <circle id="形状结合备份" stroke="#FFFFFF" stroke-width="2" cx="20" cy="20" r="19"></circle>
                <g id="切换-未选中" transform="translate(10.000000, 12.000000)" fill="#FFFFFF" fill-rule="nonzero">
                    <path d="M0.698802798,5.84477582 L18.8676068,5.84477582 C18.8745948,5.84477582 18.8801852,5.84058301 18.8871733,5.84058301 L18.8871732,5.84058301 C19.2568811,5.84446275 19.5597333,5.54790006 19.5636133,5.17819218 C19.5636624,5.17350906 19.5636624,5.16882554 19.5636133,5.16414243 C19.5622157,5.15855199 19.5664085,5.15296158 19.5664085,5.14597347 L19.5664085,5.14597282 C19.5636444,4.91093123 19.4407687,4.69365668 19.2407661,4.57016031 L15.1248154,0.454209588 L15.1248154,0.454209638 C14.8627629,0.192157156 14.4378934,0.192157156 14.1758425,0.454209546 C13.91379,0.716262028 13.91379,1.14113161 14.1758424,1.40318246 C14.1758424,1.40318246 14.1758424,1.40318246 14.1758424,1.40318246 L17.219825,4.44716507 L0.698665756,4.44716507 L0.698665745,4.44716507 C0.312728726,4.44722416 -2.89564407e-05,4.76013567 -2.89564407e-05,5.14607432 C-2.89564407e-05,5.53192781 0.312812255,5.84471006 0.698665745,5.84477582 L0.698802798,5.84477582 Z M18.8676068,10.0375893 L0.698802798,10.0375893 C0.69181477,10.0375893 0.686224357,10.0417821 0.67923628,10.0417821 L0.679236288,10.0417821 C0.311092521,10.0363388 0.00823872227,10.3303656 0.0027962538,10.698511 C0.00269910451,10.7050814 0.00269910451,10.7116529 0.00279625361,10.7182232 C0.00419385265,10.7238136 1.03914358e-06,10.729404 1.03914358e-06,10.736392 C1.03914358e-06,10.9823709 0.134171071,11.1878188 0.325643434,11.3122045 L4.44159416,15.4281552 L4.44159415,15.4281552 C4.70364664,15.6902077 5.12851622,15.6902077 5.39056707,15.4281552 C5.65261955,15.1661027 5.65261955,14.7412331 5.39056707,14.4791823 C5.39056707,14.4791823 5.39056707,14.4791823 5.39056707,14.4791823 L2.34658446,11.4351997 L18.8677437,11.4351997 L18.8677437,11.4351997 C19.2536807,11.4352588 19.566653,11.122442 19.566653,10.736505 C19.566653,10.350568 19.2538953,10.0376547 18.8679583,10.0375893 C18.867887,10.0375893 18.8678156,10.0375893 18.8677443,10.0375893 L18.8676068,10.0375893 Z" id="形状"></path>
                </g>
            </g>
        </g>
    </g>
</svg>