<?xml version="1.0" encoding="UTF-8"?>
<svg width="40px" height="40px" viewBox="0 0 40 40" version="1.1" xmlns="http://www.w3.org/2000/svg" xmlns:xlink="http://www.w3.org/1999/xlink">
    <!-- Generator: Sketch 63.1 (92452) - https://sketch.com -->
    <title>icon_huiyizhong</title>
    <desc>Created with Sketch.</desc>
    <g id="访客预约（0914）✅" stroke="none" stroke-width="1" fill="none" fill-rule="evenodd">
        <g id="会议中" transform="translate(-20.000000, -111.000000)" stroke="#FFFFFF">
            <g id="icon_huiyizhong" transform="translate(20.000000, 111.000000)">
                <circle id="形状结合备份" stroke-width="2" cx="20" cy="20" r="19"></circle>
                <path d="M11.5,19 C12.3284271,19 13,19.6715729 13,20.5 C13,21.3284271 12.3284271,22 11.5,22 C10.6715729,22 10,21.3284271 10,20.5 C10,19.6715729 10.6715729,19 11.5,19 Z M20,19 C20.8284271,19 21.5,19.6715729 21.5,20.5 C21.5,21.3284271 20.8284271,22 20,22 C19.1715729,22 18.5,21.3284271 18.5,20.5 C18.5,19.6715729 19.1715729,19 20,19 Z M28.5,19 C29.3284271,19 30,19.6715729 30,20.5 C30,21.3284271 29.3284271,22 28.5,22 C27.6715729,22 27,21.3284271 27,20.5 C27,19.6715729 27.6715729,19 28.5,19 Z" id="Combined-Shape" stroke-width="0.8" fill="#FFFFFF"></path>
            </g>
        </g>
    </g>
</svg>