<?xml version="1.0" encoding="UTF-8"?>
<svg width="40px" height="40px" viewBox="0 0 40 40" version="1.1" xmlns="http://www.w3.org/2000/svg" xmlns:xlink="http://www.w3.org/1999/xlink">
    <!-- Generator: Sketch 63.1 (92452) - https://sketch.com -->
    <title>icon_quxiao</title>
    <desc>Created with Sketch.</desc>
    <g id="访客预约（0914）✅" stroke="none" stroke-width="1" fill="none" fill-rule="evenodd">
        <g id="会议预约取消" transform="translate(-20.000000, -111.000000)">
            <g id="icon_quxiao" transform="translate(20.000000, 111.000000)">
                <circle id="形状结合备份" stroke="#FFFFFF" stroke-width="2" cx="20" cy="20" r="19"></circle>
                <path d="M29,25.8833445 L25.7085721,27.0341895 C25.7085721,27.0341895 23.6473387,25.3741877 20.186821,21.791816 C18.3414474,24.0208473 16.5010228,26.0902419 14.6655473,28 L13,25.3624161 C13,25.3624161 18.3727334,19.8629436 18.3727334,19.873656 C15.7830759,17.0455673 13,13.3283447 13,13.3283447 L13.9993284,12 C13.9993284,12 19.7266622,17.7954393 20.0920081,18.1596629 C20.5110813,17.741877 26.6668149,12 26.6668149,12 L27.1459363,13.3283447 C27.1351908,13.3069198 24.2712079,17.2423735 21.9079919,19.8629436 C25.3357958,23.0552558 29,25.8833445 29,25.8833445 Z" id="Shape" fill="#FFFFFF" fill-rule="nonzero"></path>
            </g>
        </g>
    </g>
</svg>