<?xml version="1.0" encoding="UTF-8"?>
<svg width="44px" height="44px" viewBox="0 0 44 44" version="1.1" xmlns="http://www.w3.org/2000/svg" xmlns:xlink="http://www.w3.org/1999/xlink">
    <!-- Generator: Sketch 63.1 (92452) - https://sketch.com -->
    <title>icon_baojie</title>
    <desc>Created with Sketch.</desc>
    <g id="空间详情（0807）✅" stroke="none" stroke-width="1" fill="none" fill-rule="evenodd">
        <g id="XXX控件" transform="translate(-36.000000, -206.000000)" fill="#00BF7F">
            <g id="icon_baojie" transform="translate(36.000000, 206.000000)">
                <circle id="椭圆形备份-5" opacity="0.100000001" cx="22" cy="22" r="22"></circle>
                <g id="编组-3" transform="translate(10.000000, 10.000000)" fill-rule="nonzero">
                    <path d="M14.8296622,25.0208622 C13.7115296,25.3385995 12.7430834,24.6175284 10.4163081,23.3743623 C10.68699,22.8294126 11.5693938,21.0614674 11.2830268,20.7594161 C11.2830268,20.7594161 10.1048431,22.7290282 9.21705968,22.6470183 L8.5573844,22.2898438 C9.47250311,21.4352251 11.320221,18.345247 11.1136227,17.7684876 C11.1136227,17.7684876 9.34074609,20.6702498 6.85711185,21.2662897 C5.1752099,20.7813911 3.64209242,19.4239523 2.5459304,18.7485887 C3.26744889,17.9867369 5.05108234,15.8822285 5.25723161,14.9684529 C5.25723161,14.9684529 2.85470527,17.2105399 1.41928596,18.0158643 C0.75199303,17.5609952 0.24916891,17.1724477 6.51330841e-15,16.889665 C0.41677695,13.8395634 5.64486139,9.016148 5.64486139,9.016148 L19.5522757,17.1254026 C19.5522757,17.1258507 17.0614649,24.3889953 14.8296859,25.0208981 L14.8296622,25.0208622 Z" id="路径"></path>
                    <path d="M21.3990797,14.0354123 L20.1675685,16.09555 L6.26106012,7.98672867 L7.49212626,5.92703607 L7.49212624,5.92703611 C7.72222817,5.54707716 8.21460185,5.42198656 8.59815891,5.64604676 L13.4650666,8.4841736 L18.1863172,0.588244817 C18.5264619,0.0190951311 19.269493,-0.169573708 19.8462603,0.166536481 L19.8462603,0.166536482 C20.414059,0.493868647 20.6089984,1.21951736 20.2816639,1.78731604 C20.2783416,1.79307898 20.2749709,1.79881389 20.2715522,1.80452015 L15.5512075,9.70088221 L21.1136296,12.944584 L21.1136297,12.944584 C21.4923341,13.1618455 21.6232088,13.6449708 21.4059478,14.0236753 C21.4036988,14.0275955 21.4014162,14.0314964 21.3991003,14.0353775 L21.3990797,14.0354123 Z" id="路径"></path>
                </g>
            </g>
        </g>
    </g>
</svg>