<?xml version="1.0" encoding="UTF-8"?>
<svg width="44px" height="44px" viewBox="0 0 44 44" version="1.1" xmlns="http://www.w3.org/2000/svg" xmlns:xlink="http://www.w3.org/1999/xlink">
    <!-- Generator: Sketch 63.1 (92452) - https://sketch.com -->
    <title>icon_xunjian</title>
    <desc>Created with Sketch.</desc>
    <g id="空间详情（0807）✅" stroke="none" stroke-width="1" fill="none" fill-rule="evenodd">
        <g id="XXX控件" transform="translate(-215.000000, -206.000000)">
            <g id="icon_xunjian" transform="translate(215.000000, 206.000000)">
                <circle id="椭圆形备份-5" fill="#FF4929" opacity="0.100000001" cx="22" cy="22" r="22"></circle>
                <g id="手电筒-Flashlight_sel-2" transform="translate(14.000000, 9.000000)" fill-rule="nonzero">
                    <g id="手电筒-Flashlight_sel">
                        <path d="M12.2893288,5.84721029 C12.9053934,5.84721029 13.4898651,6.08665243 13.9271795,6.52895527 C14.3229242,6.9280255 14.5590407,7.44349122 14.5939594,8.00052675 L14.5989489,8.16763741 L14.5989489,10.8297684 L14.5989489,10.8297745 C14.6000684,12.7036795 13.7572603,14.4784612 12.3042887,15.6618499 L12.1197187,15.8065129 L12.1197187,23.4287543 L12.1197188,23.4286856 C12.1186003,24.6530674 11.1660475,25.6657393 9.94402219,25.7416951 L9.80268481,25.7458521 L5.70556377,25.7458521 L5.70556378,25.7458521 C4.48118202,25.7446974 3.4685387,24.7921158 3.39261923,23.5700879 L3.38846225,23.4287505 L3.38846225,15.8081719 L3.38846206,15.8081718 C1.89384532,14.6791797 0.985487681,12.9384515 0.914226625,11.0667186 L0.910069579,10.8314334 L0.910069579,8.16431404 L0.910069579,8.16438266 C0.911188093,6.94000089 1.86374091,5.927329 3.08576619,5.85137315 L3.22710356,5.84721029 L12.2893234,5.84721029 L12.2893288,5.84721029 Z M12.287666,7.0593807 L3.22710892,7.0593807 L3.22710894,7.0593807 C2.66080853,7.05978006 2.18633585,7.48795533 2.12800301,8.05124193 L2.12218323,8.16431183 L2.12218323,9.25510379 L13.3868472,9.25510379 L13.3868472,8.16597462 L13.3868472,8.16597539 C13.3902211,7.87305369 13.2750749,7.59118435 13.0675157,7.38446286 L13.0675158,7.38446291 C12.8618977,7.17558316 12.580767,7.05839447 12.287666,7.0593807 L12.287666,7.0593807 Z" id="形状" fill="#FF4929"></path>
                        <g id="编组-2" transform="translate(0.000000, 0.195378)" fill="#FF4929">
                            <path d="M0.314758008,0.973565152 L0.314757958,0.973565187 C0.649309238,0.739372017 1.11033668,0.820489017 1.34485799,1.15480958 L2.38410339,2.63885201 L2.43232438,2.71783466 L2.43232439,2.71783468 C2.61873097,3.08150301 2.47503166,3.52742763 2.11136384,3.71383447 C1.78544349,3.88089265 1.38634468,3.78438962 1.17275897,3.48687679 L0.133513571,2.00283437 L0.0852925848,1.92385172 L0.0852926001,1.92385174 C-0.0881494023,1.59446551 0.0101182648,1.18751001 0.314757983,0.973565755 L0.314758008,0.973565152 Z" id="路径"></path>
                            <path d="M14.4210593,1.08164667 L14.4210593,1.08164666 C14.6988028,0.781878921 15.1669699,0.764024685 15.466735,1.04176899 C15.7359022,1.29116087 15.7816368,1.70014654 15.5742047,2.00283455 L14.5349593,3.48687698 L14.4767616,3.55920846 L14.4767616,3.55920843 C14.1977606,3.85780702 13.7295234,3.87369188 13.4309274,3.59469061 C13.1647143,3.34594826 13.1191875,2.94043367 13.3236159,2.63885245 L14.3628613,1.15481003 L14.4210593,1.08164667 Z" id="路径"></path>
                            <path d="M7.50799894,0.000831462063 L7.5079989,0.000831462063 C7.91665877,0.0008314442 8.24794163,0.332114315 8.24794163,0.740774184 C8.24794163,0.740774184 8.24794163,0.740774184 8.24794163,0.740774184 L8.24794163,2.55155536 L8.24212185,2.64384035 L8.24212188,2.64384015 C8.18756877,3.04884188 7.8150258,3.33293519 7.41002407,3.27838261 C7.0453009,3.22925488 6.77211706,2.91955715 6.76888761,2.55155516 L6.76888761,0.739111191 L6.77470738,0.6468262 L6.77470736,0.646826334 C6.82156642,0.277421362 7.13563469,0.00038711891 7.50799891,2.22044605e-16 L7.50799894,0.000831462063 Z" id="路径"></path>
                        </g>
                        <path d="M8.54222557,15.7574544 C8.5596849,15.7574544 8.57381863,15.7690939 8.57381863,15.7890474 L8.57381863,20.0873664 C8.57381863,20.1048257 8.5596849,20.1164767 8.54222557,20.1164767 L6.97088654,20.1164767 L6.97088654,20.1164767 C6.95390355,20.1169244 6.939764,20.1035292 6.93929341,20.0865462 C6.93929341,20.0862654 6.93929341,20.0859845 6.93929341,20.0857035 L6.93929341,15.788216 C6.93929341,15.7707567 6.95342715,15.7566229 6.97088647,15.7566229 L8.54305691,15.7566229 L8.54222557,15.7574544 Z" id="路径" fill="#FFFFFF"></path>
                    </g>
                </g>
            </g>
        </g>
    </g>
</svg>