<?xml version="1.0" encoding="UTF-8"?>
<svg width="44px" height="44px" viewBox="0 0 44 44" version="1.1" xmlns="http://www.w3.org/2000/svg" xmlns:xlink="http://www.w3.org/1999/xlink">
    <!-- Generator: Sketch 63.1 (92452) - https://sketch.com -->
    <title>icon_kongtiao</title>
    <desc>Created with Sketch.</desc>
    <g id="空间详情（0807）✅" stroke="none" stroke-width="1" fill="none" fill-rule="evenodd">
        <g id="XXX控件" transform="translate(-36.000000, -118.000000)" fill="#007FFF">
            <g id="icon_kongtiao" transform="translate(36.000000, 118.000000)">
                <g id="icon_location备份" opacity="0.100000001">
                    <circle id="椭圆形备份-5" cx="22" cy="22" r="22"></circle>
                </g>
                <g id="Air-conditioning" transform="translate(11.000000, 13.000000)">
                    <path d="M19.6944444,0.458333333 C20.7990139,0.458333333 21.6944444,1.35376383 21.6944444,2.45833333 L21.6944444,8.08333333 C21.6944444,9.18790283 20.7990139,10.0833333 19.6944444,10.0833333 L2.30555556,10.0833333 C1.20098606,10.0833333 0.305555556,9.18790283 0.305555556,8.08333333 L0.305555556,2.45833333 C0.305555556,1.35376383 1.20098606,0.458333333 2.30555556,0.458333333 L19.6944444,0.458333333 Z M18.4861111,5.80555556 L3.51388889,5.80555556 C2.92325103,5.80555556 2.44444444,6.28436214 2.44444444,6.875 C2.44444444,7.46563786 2.92325103,7.94444444 3.51388889,7.94444444 L3.51388889,7.94444444 L18.4861111,7.94444444 C19.076749,7.94444444 19.5555556,7.46563786 19.5555556,6.875 C19.5555556,6.28436214 19.076749,5.80555556 18.4861111,5.80555556 L18.4861111,5.80555556 Z" id="Combined-Shape"></path>
                    <path d="M10.2422219,12.6064696 L11.7577781,14.1157526 C10.6376649,15.2405214 10.6414389,17.0603577 11.7662076,18.1804709 C11.8625245,18.2763891 11.9655244,18.3653537 12.0744319,18.4466949 L12.7094004,18.9209419 L11.4294885,20.6346137 L10.79452,20.1603667 C10.6045668,20.0184939 10.4249174,19.8633246 10.2569246,19.696027 C8.29513731,17.7423598 8.28855473,14.5682568 10.2422219,12.6064696 Z M16.6588886,11.5370251 L18.1744447,13.0463082 C17.0543315,14.1710769 17.0581056,15.9909133 18.1828743,17.1110265 C18.2791911,17.2069447 18.3821911,17.2959093 18.4910986,17.3772504 L19.1260671,17.8514974 L17.8461551,19.5651692 L17.2111867,19.0909222 C17.0212335,18.9490495 16.8415841,18.7938801 16.6735912,18.6265826 C14.711804,16.6729154 14.7052214,13.4988124 16.6588886,11.5370251 Z M3.82555528,11.5370251 L5.34111138,13.0463082 C4.22099819,14.1710769 4.22477224,15.9909133 5.34954096,17.1110265 C5.4458578,17.2069447 5.54885776,17.2959093 5.65776527,17.3772504 L6.29273375,17.8514974 L5.0128218,19.5651692 L4.37785332,19.0909222 C4.18790016,18.9490495 4.00825078,18.7938801 3.8402579,18.6265826 C1.87847065,16.6729154 1.87188806,13.4988124 3.82555528,11.5370251 Z" id="Combined-Shape" fill-rule="nonzero"></path>
                </g>
            </g>
        </g>
    </g>
</svg>