<?xml version="1.0" encoding="UTF-8"?>
<svg width="44px" height="44px" viewBox="0 0 44 44" version="1.1" xmlns="http://www.w3.org/2000/svg" xmlns:xlink="http://www.w3.org/1999/xlink">
    <!-- Generator: Sketch 63.1 (92452) - https://sketch.com -->
    <title>icon_zhaoming</title>
    <desc>Created with Sketch.</desc>
    <g id="空间详情（0807）✅" stroke="none" stroke-width="1" fill="none" fill-rule="evenodd">
        <g id="XXX控件" transform="translate(-215.000000, -118.000000)" fill="#FF8E19">
            <g id="icon_zhaoming" transform="translate(215.000000, 118.000000)">
                <circle id="椭圆形备份-5" opacity="0.100000001" cx="22" cy="22" r="22"></circle>
                <g id="Lamp#2" transform="translate(12.000000, 8.000000)">
                    <path d="M11,0.74691358 C11.6562643,0.74691358 12.1882716,1.2789209 12.1882716,1.93518519 L12.1882716,11.441358 C12.1882716,12.0976223 11.6562643,12.6296296 11,12.6296296 C10.3437357,12.6296296 9.8117284,12.0976223 9.8117284,11.441358 L9.8117284,1.93518519 C9.8117284,1.2789209 10.3437357,0.74691358 11,0.74691358 Z" id="Combined-Shape"></path>
                    <path d="M15.6032532,20.9478814 C15.0754878,22.9977421 13.2146212,24.5123457 11,24.5123457 C8.78537877,24.5123457 6.92451217,22.9977421 6.39674682,20.9478814 Z" id="Combined-Shape"></path>
                    <path d="M11,7.87654321 C16.9063786,7.87654321 21.6944444,12.6646091 21.6944444,18.5709877 L21.6944444,18.5709877 L21.6944444,18.5709877 L0.305555556,18.5709877 C0.305555556,12.6646091 5.09362143,7.87654321 11,7.87654321 Z" id="Rectangle-98"></path>
                </g>
            </g>
        </g>
    </g>
</svg>