<?xml version="1.0" encoding="UTF-8"?>
<svg width="44px" height="44px" viewBox="0 0 44 44" version="1.1" xmlns="http://www.w3.org/2000/svg" xmlns:xlink="http://www.w3.org/1999/xlink">
    <!-- Generator: Sketch 63.1 (92452) - https://sketch.com -->
    <title>icon_xiangqing</title>
    <desc>Created with Sketch.</desc>
    <g id="空间详情（0807）✅" stroke="none" stroke-width="1" fill="none" fill-rule="evenodd">
        <g id="XXX控件" transform="translate(-36.000000, -294.000000)">
            <g id="icon_xiangqing" transform="translate(36.000000, 294.000000)">
                <circle id="椭圆形备份-5" fill="#1591FF" opacity="0.100000001" cx="22" cy="22" r="22"></circle>
                <g id="icon_tab_scene_normal备份-2" transform="translate(10.000000, 10.000000)">
                    <rect id="Rectangle-13" x="0" y="0" width="25" height="25"></rect>
                    <path d="M23.0029179,8.10122507 C23.0785863,8.24489806 23.1181293,8.40483664 23.1181293,8.5672178 L23.1181293,17.3103913 C23.1181293,18.05275 22.7069452,18.7340347 22.0501148,19.0799684 L14.4124213,23.1025224 C13.9237661,23.3598831 13.3190007,23.1723818 13.06164,22.6837266 C12.9859716,22.5400536 12.9464286,22.380115 12.9464286,22.2177338 L12.9464286,13.4745603 C12.9464286,12.7322017 13.3576127,12.0509169 14.0144431,11.7049832 L21.6521366,7.68242925 C22.1407918,7.42506857 22.7455572,7.61256985 23.0029179,8.10122507 Z M1.90092574,8.10122507 C2.15828642,7.61256985 2.7630518,7.42506857 3.25170702,7.68242925 L3.25170702,7.68242925 L10.8894005,11.7049832 C11.5462309,12.0509169 11.957415,12.7322017 11.957415,13.4745603 L11.957415,13.4745603 L11.957415,22.2177338 C11.957415,22.380115 11.917872,22.5400536 11.8422036,22.6837266 C11.5848429,23.1723818 10.9800775,23.3598831 10.4914223,23.1025224 L10.4914223,23.1025224 L2.85372882,19.0799684 C2.1968984,18.7340347 1.78571429,18.05275 1.78571429,17.3103913 L1.78571429,17.3103913 L1.78571429,8.5672178 C1.78571429,8.40483664 1.8252573,8.24489806 1.90092574,8.10122507 Z" id="Combined-Shape" fill="#1591FF"></path>
                    <path d="M20.9917373,6.90226436 L13.4319855,10.8837687 C12.8486415,11.1909992 12.1513585,11.1909992 11.5680145,10.8837687 L4.00826272,6.90226436 C3.5196075,6.64490368 3.33210623,6.0401383 3.58946691,5.55148308 C3.68357476,5.37279884 3.82957849,5.22679512 4.00826272,5.13268727 L11.5680145,1.15118295 C12.1513585,0.84395241 12.8486415,0.84395241 13.4319855,1.15118295 L20.9917373,5.13268727 C21.4803925,5.39004795 21.6678938,5.99481332 21.4105331,6.48346855 C21.3164252,6.66215278 21.1704215,6.8081565 20.9917373,6.90226436 Z" id="Path-2" fill="#1591FF" opacity="0.5"></path>
                </g>
            </g>
        </g>
    </g>
</svg>