<?xml version="1.0" encoding="UTF-8"?>
<svg width="26px" height="26px" viewBox="0 0 26 26" version="1.1" xmlns="http://www.w3.org/2000/svg" xmlns:xlink="http://www.w3.org/1999/xlink">
    <!-- Generator: Sketch 63.1 (92452) - https://sketch.com -->
    <title>icon_huodong</title>
    <desc>Created with Sketch.</desc>
    <g id="新增icon（0723）✅" stroke="none" stroke-width="1" fill="none" fill-rule="evenodd">
        <g id="icon汇总" transform="translate(-36.000000, -587.000000)">
            <g id="编组-7" transform="translate(36.000000, 587.000000)">
                <rect id="矩形" fill="#D8D8D8" opacity="0" x="0" y="0" width="26" height="26"></rect>
                <g id="聚会" fill-rule="nonzero">
                    <path d="M23.7072207,15.3403359 C23.6109706,15.6153363 23.4047203,15.8490865 23.11597,15.9762742 L1.54563238,25.5256603 C0.658756352,25.9175357 -0.265932224,25.0512847 0.067505664,24.1403462 L7.42032672,4.1340729 C7.43063923,3.4500096 7.63345197,2.84157139 8.04938995,2.34313331 C9.88845459,0.15000576 14.5806476,1.72094509 18.8500275,5.30282426 C23.0678449,8.84001587 25.4225352,13.1231459 23.7072207,15.3403359 Z M14.2575222,10.7787681 C16.0278367,12.2637699 17.9047139,13.3706461 19.4894033,13.9000218 C20.8300298,14.3503348 21.7100308,14.3022097 21.9575311,14.0065844 C22.2050314,13.710959 22.0984688,12.837833 21.4212805,11.5934566 C20.6237796,10.1256424 19.2075279,8.46876544 17.4372134,6.98376371 C15.6668988,5.49876198 13.7900216,4.3953232 12.2053323,3.86594758 C10.8647057,3.41563456 9.9847047,3.46375962 9.73720442,3.75938496 C9.48970413,4.0550103 9.59626675,4.92813632 10.273455,6.17251277 C11.070956,7.63688947 12.4872076,9.2937664 14.2575222,10.7787681 L14.2575222,10.7787681 Z" id="形状" fill="#000000"></path>
                    <path d="M20.0271966,15.5 C16.1295749,14.5 12.8760716,11.954018 11.4365598,10.5062013 C10.3122696,9.36900712 9.25102376,8.02122143 8.26332958,6.46284422 L2.02719661,23.4628442 L20.0271966,15.5 Z" id="路径" fill="#FFFFFF"></path>
                    <path d="M14.2781472,6.92876365 C13.9515843,7.44095174 13.2709585,7.59220192 12.7587704,7.26563904 C12.2465823,6.93907616 12.0953322,6.25845037 12.421895,5.74626227 C13.4290837,4.16501043 14.0547094,2.60438362 14.3090847,1.05750682 C14.4053348,0.45938112 14.972523,0.050318144 15.5706487,0.15000576 C16.1687744,0.249693376 16.5778374,0.813444032 16.4781498,1.41156973 C16.1790869,3.26782189 15.4400236,5.10688653 14.2781472,6.92876365 Z M21.00878,11.6965817 C20.7406547,12.2431448 20.080654,12.4665826 19.5375283,12.1984573 C18.9909652,11.930332 18.7675274,11.2703312 19.0356527,10.7272056 L20.115029,8.5237655 C20.3831543,7.97720237 21.0431551,7.75376461 21.5862807,8.02188992 C22.1328438,8.29001523 22.3562816,8.950016 22.0881563,9.49314163 L21.00878,11.6965817 Z M18.1075267,8.8987671 C17.8634639,9.45564275 17.2137756,9.71001805 16.6603375,9.46595526 C16.1034618,9.22189248 15.8490865,8.57220422 16.0931493,8.01876608 C17.5265885,4.74282477 19.6097159,2.2746969 22.3356566,0.641882496 C22.8581572,0.329069632 23.531908,0.500944832 23.8447208,1.02000794 C24.1575337,1.54250854 23.9856585,2.21625933 23.4665954,2.52907219 C21.1497177,3.91782381 19.3656531,6.02845126 18.1075267,8.8987671 Z" id="形状" fill="#0076FF"></path>
                </g>
            </g>
        </g>
    </g>
</svg>