<?xml version="1.0" encoding="UTF-8"?>
<svg width="26px" height="26px" viewBox="0 0 26 26" version="1.1" xmlns="http://www.w3.org/2000/svg" xmlns:xlink="http://www.w3.org/1999/xlink">
    <!-- Generator: Sketch 63.1 (92452) - https://sketch.com -->
    <title>icon_beiwang</title>
    <desc>Created with Sketch.</desc>
    <g id="新增icon（0723）✅" stroke="none" stroke-width="1" fill="none" fill-rule="evenodd">
        <g id="icon汇总" transform="translate(-36.000000, -454.000000)">
            <g id="icon_order备份" transform="translate(36.000000, 454.000000)">
                <rect id="矩形" fill="#D8D8D8" opacity="0" x="0" y="0" width="26" height="26"></rect>
                <g id="编组-6备份" transform="translate(3.714286, 2.785714)" fill-rule="nonzero">
                    <path d="M10.5987301,0.214285714 L16.5947328,0.214285714 L16.5947328,9.61585915 L14.3642198,7.53616923 C14.3602224,7.53187235 14.3602224,7.53187235 14.3562251,7.53187235 C14.3362384,7.51468483 14.3162518,7.50179419 14.2962651,7.48460667 C14.2842731,7.47601291 14.2722811,7.45882539 14.2562917,7.45023163 C14.2442997,7.44163787 14.2323077,7.43734099 14.2203157,7.42874723 C14.2043264,7.42015347 14.1923344,7.40726283 14.176345,7.39866907 C14.1563583,7.38577843 14.1323743,7.37718467 14.1123877,7.36859091 C14.0963983,7.35999715 14.0844063,7.35140339 14.068417,7.34280963 C14.056425,7.33851275 14.0404356,7.33421587 14.0284436,7.32991899 C14.0124543,7.32562211 14.0004623,7.31702835 13.9844729,7.30843459 C13.9644863,7.29984083 13.9405023,7.29984083 13.9205156,7.29124707 C13.9045262,7.28695019 13.8885369,7.27835643 13.8685502,7.27405955 C13.8565582,7.26976267 13.8405689,7.27405955 13.8285769,7.26976267 C13.8125875,7.26546579 13.7965982,7.26116891 13.7846062,7.26116891 C13.7646195,7.25687203 13.7406355,7.26116891 13.7166515,7.25687203 C13.6846728,7.25687203 13.6486968,7.25257515 13.6167181,7.25257515 L13.5767448,7.25257515 C13.5527607,7.25257515 13.5287767,7.26116891 13.5047927,7.26546579 C13.4848061,7.26976267 13.4648194,7.26976267 13.4448327,7.27405955 C13.4328407,7.27835643 13.424846,7.28265331 13.412854,7.28265331 C13.400862,7.28695019 13.3848727,7.28695019 13.3728807,7.29124707 C13.3488967,7.29984083 13.32891,7.30843459 13.304926,7.31702835 C13.2849393,7.32562211 13.2649526,7.32991899 13.2449659,7.33851275 C13.2369713,7.34280963 13.2249793,7.35140339 13.2169846,7.35570027 C13.2049926,7.36429403 13.1890033,7.36859091 13.1770112,7.37288779 C13.1570246,7.38577843 13.1370379,7.39866907 13.1170512,7.41585659 C13.1130539,7.42015347 13.1090565,7.42445035 13.1010619,7.42445035 C13.0890699,7.43304411 13.0770779,7.43734099 13.0650859,7.44593475 C13.0610885,7.45023163 13.0570912,7.45452851 13.0490965,7.45882539 C13.0331072,7.47171603 13.0131205,7.48460667 12.9971312,7.49749731 C12.9931338,7.49749731 12.9931338,7.50179419 12.9891365,7.50179419 L10.5947328,9.55140595 L10.5947328,0.214285714 L10.5987301,0.214285714 Z" id="路径" fill="#007FFF"></path>
                    <path d="M17.7667306,-7.10542736e-14 L1.57892207,-7.10542736e-14 C0.681456595,-7.10542736e-14 3.90798505e-14,0.718907521 3.90798505e-14,1.59617579 L3.90798505e-14,18.9212155 C3.90798505e-14,19.7984838 0.707171939,20.5173913 1.57892207,20.5173913 L17.7384438,20.5173913 C18.6359092,20.5173913 19.3970834,19.7984838 19.3970834,18.9212155 L19.3970834,1.59617579 C19.4253703,0.718907521 18.6641961,-7.10542736e-14 17.7667306,-7.10542736e-14 Z" id="形状" stroke="#111110" stroke-width="2"></path>
                </g>
            </g>
        </g>
    </g>
</svg>