<?xml version="1.0" encoding="UTF-8"?>
<svg width="26px" height="26px" viewBox="0 0 26 26" version="1.1" xmlns="http://www.w3.org/2000/svg" xmlns:xlink="http://www.w3.org/1999/xlink">
    <!-- Generator: Sketch 63.1 (92452) - https://sketch.com -->
    <title>icon_zhuangtai</title>
    <desc>Created with Sketch.</desc>
    <g id="新增icon（0723）✅" stroke="none" stroke-width="1" fill="none" fill-rule="evenodd">
        <g id="icon汇总" transform="translate(-36.000000, -780.000000)">
            <g id="编组-8" transform="translate(36.000000, 780.000000)">
                <g id="icon_plan备份-2">
                    <rect id="矩形备份-10" fill="#D8D8D8" opacity="0" x="0" y="0" width="26" height="26"></rect>
                    <g id="编组-7备份" stroke="#111110" stroke-width="2">
                        <circle id="椭圆形" cx="13" cy="13" r="12"></circle>
                    </g>
                    <g id="user" transform="translate(7.000000, 6.000000)" fill="#007FFF" fill-rule="nonzero">
                        <path d="M3.00113407,3 C3.00113407,1.34314575 4.34478794,0 6.00226899,0 C7.65975004,0 9.00340392,1.34314575 9.00340392,3 C9.00340392,4.65685425 7.65975004,6 6.00226899,6 C5.20631852,6 4.44296811,5.68392948 3.88014614,5.12132034 C3.31732416,4.55871121 3.00113407,3.79564947 3.00113407,3 Z M11.9220076,10.9125 L10.8415991,8.745 C10.4598566,7.9806318 9.67798508,7.49832103 8.82333582,7.49999563 L3.18120216,7.49999563 C2.32655291,7.49832103 1.54468135,7.9806318 1.16293893,8.745 L0.0825303521,10.9125 C-0.0344908351,11.1446387 -0.0229184699,11.4207959 0.113114223,11.6423384 C0.249146915,11.8638809 0.490239627,11.9992133 0.750282873,11.9999956 L11.2542551,11.9999956 C11.5142984,11.9992133 11.7553911,11.8638809 11.8914238,11.6423384 C12.0274565,11.4207959 12.0390288,11.1446387 11.9220076,10.9125 Z" id="Icon-color"></path>
                    </g>
                </g>
            </g>
        </g>
    </g>
</svg>