<?xml version="1.0" encoding="UTF-8"?>
<svg width="26px" height="26px" viewBox="0 0 26 26" version="1.1" xmlns="http://www.w3.org/2000/svg" xmlns:xlink="http://www.w3.org/1999/xlink">
    <!-- Generator: Sketch 63.1 (92452) - https://sketch.com -->
    <title>icon_plan</title>
    <desc>Created with Sketch.</desc>
    <g id="新增icon（0723）✅" stroke="none" stroke-width="1" fill="none" fill-rule="evenodd">
        <g id="icon汇总" transform="translate(-36.000000, -258.000000)">
            <g id="icon_plan" transform="translate(36.000000, 258.000000)">
                <rect id="矩形备份-10" fill="#D8D8D8" opacity="0" x="0" y="0" width="26" height="26"></rect>
                <g id="编组-7备份">
                    <path d="M14.4353039,16.8995359 L14.4353039,16.8995359 C14.2564084,16.8994272 14.0843862,16.8306185 13.9547676,16.7073198 L9.60347684,12.5747079 L6.77040211,15.5052827 L6.77040213,15.5052827 C6.50412018,15.7828294 6.06326079,15.7919635 5.78571409,15.5256817 C5.5081674,15.2593997 5.49903329,14.8185403 5.76531513,14.5409936 C5.76651782,14.5397401 5.76772519,14.538491 5.76893722,14.5372465 L9.08115536,11.1108139 L9.08115536,11.1108139 C9.3471805,10.8365927 9.78426394,10.8272801 10.0617279,11.089921 L14.3851615,15.1974615 L19.3367744,9.49649059 L19.3367744,9.49649059 C19.6057616,9.22049127 20.0475633,9.21480667 20.3235626,9.48379479 C20.5769606,9.73075518 20.6054141,10.1282792 20.3897759,10.4088141 L14.9618053,16.6599642 L14.9618053,16.6599641 C14.8368644,16.8033522 14.6587171,16.889405 14.4687333,16.898143 L14.4353047,16.8995359 L14.4353039,16.8995359 Z" id="路径" stroke="#007FFF" stroke-width="0.5" fill="#007FFF" fill-rule="nonzero"></path>
                    <circle id="椭圆形" stroke="#111110" stroke-width="2" cx="13" cy="13" r="12"></circle>
                </g>
            </g>
        </g>
    </g>
</svg>