<?xml version="1.0" encoding="UTF-8"?>
<svg width="26px" height="26px" viewBox="0 0 26 26" version="1.1" xmlns="http://www.w3.org/2000/svg" xmlns:xlink="http://www.w3.org/1999/xlink">
    <!-- Generator: Sketch 63.1 (92452) - https://sketch.com -->
    <title>icon_fapiao</title>
    <desc>Created with Sketch.</desc>
    <g id="新增icon（0723）✅" stroke="none" stroke-width="1" fill="none" fill-rule="evenodd">
        <g id="icon汇总" transform="translate(-36.000000, -520.000000)">
            <g id="编组-6" transform="translate(36.000000, 520.000000)">
                <rect id="矩形" fill="#D8D8D8" opacity="0" x="0" y="0" width="26" height="26"></rect>
                <g id="发票-2" transform="translate(3.000000, 2.000000)">
                    <g id="发票">
                        <path d="M7.33705311,22.5775283 C7.0367957,22.5637122 6.75213963,22.4398039 6.53743056,22.2294565 L4.93818542,20.4608793 C4.66081284,20.1443852 4.17938939,20.112673 3.86289533,20.3900463 C3.85750834,20.3947674 3.85218819,20.3995642 3.84693645,20.4044354 L3.79049249,20.4608794 L2.18183977,22.2294566 C1.94391943,22.4267227 1.6522358,22.5479844 1.34458906,22.5775284 C1.22024268,22.5967425 1.09315626,22.5699874 0.987111948,22.5022699 C0.584112303,22.3591613 0.306106621,21.9884901 0.281477214,21.561538 L0.281477214,1.06297536 C0.276343312,0.48110297 0.743814049,0.00516745939 1.3256902,-9.37696656e-05 C1.33198986,-9.37696656e-05 1.3382899,-9.37696656e-05 1.34458956,-9.37696656e-05 L19.2184915,-9.37696656e-05 C19.8019316,-9.37696656e-05 20.2763561,0.470151323 20.2815198,1.05356931 L20.2815198,21.5238982 C20.2646632,21.953621 19.9837836,22.3281267 19.5759709,22.4646304 C19.4465509,22.5131067 19.3096513,22.5385764 19.1714558,22.5398888 C18.8900995,22.5380282 18.6243446,22.4103284 18.4470916,22.1918171 L16.885479,20.442055 C16.5940756,20.126108 16.1021196,20.1050849 15.7848226,20.3950184 L14.0632833,22.220039 C13.634849,22.651268 12.9379554,22.6535334 12.5067286,22.225099 C12.5050364,22.2234178 12.5033497,22.2217311 12.5016685,22.220039 L10.9118309,20.4608693 C10.6270624,20.1439937 10.1393327,20.1179657 9.822457,20.4027353 L9.76413854,20.4608694 L8.1178577,22.2294466 C7.91047286,22.439318 7.79471876,22.4860397 7.5,22.5 L7.33705311,22.5775283 Z" id="路径" stroke="#111111" stroke-width="2" fill-rule="nonzero"></path>
                        <rect id="矩形备份-12" fill="#007FFF" x="4.37931034" y="13.3448276" width="8" height="1.52023988" rx="0.76011994"></rect>
                        <rect id="矩形备份-13" fill="#007FFF" x="4.37931034" y="9" width="10" height="1.52023988" rx="0.76011994"></rect>
                        <rect id="矩形备份-14" fill="#007FFF" x="4.37931034" y="5" width="7" height="1.52023988" rx="0.76011994"></rect>
                    </g>
                </g>
            </g>
        </g>
    </g>
</svg>