<?xml version="1.0" encoding="UTF-8"?>
<svg width="26px" height="26px" viewBox="0 0 26 26" version="1.1" xmlns="http://www.w3.org/2000/svg" xmlns:xlink="http://www.w3.org/1999/xlink">
    <!-- Generator: Sketch 63.1 (92452) - https://sketch.com -->
    <title>icon_tixing</title>
    <desc>Created with Sketch.</desc>
    <g id="新增icon（0723）✅" stroke="none" stroke-width="1" fill="none" fill-rule="evenodd">
        <g id="icon汇总" transform="translate(-36.000000, -389.000000)">
            <g id="icon_plan备份" transform="translate(36.000000, 389.000000)">
                <rect id="矩形备份-10" fill="#D8D8D8" opacity="0" x="0" y="0" width="26" height="26"></rect>
                <g id="编组-7备份" stroke="#111110" stroke-width="2">
                    <circle id="椭圆形" cx="13" cy="13" r="12"></circle>
                </g>
                <g id="编组-3" transform="translate(12.000000, 7.000000)" fill="#007FFF" fill-rule="nonzero" stroke="#007FFF" stroke-width="0.5">
                    <path d="M1.68361739,9.00007389 L0.683617393,9.00007389 C0.407475018,9.00007389 0.183617393,9.22393152 0.183617393,9.50007389 L0.183617393,10.5000739 C0.183617393,10.7762163 0.407475018,11.0000739 0.683617393,11.0000739 L1.68361739,11.0000739 C1.95975977,11.0000739 2.18361739,10.7762163 2.18361739,10.5000739 L2.18361739,9.50007389 C2.18361739,9.22393152 1.95975977,9.00007389 1.68361739,9.00007389 Z" id="Path"></path>
                    <path d="M1.86361739,7.38937336e-05 L0.503617393,7.38937336e-05 C0.359927474,-0.000964906243 0.222736182,0.05986642 0.127033929,0.167052943 C0.0313316759,0.274239467 -0.0136296025,0.41741902 0.00361739333,0.560073894 L0.44,7.00007389 C0.455255851,7.12631516 0.562843582,7.22099236 0.69,7.22012435 L1.75,7.22012435 C1.87715642,7.22099236 1.98474415,7.12631516 2,7.00007389 L2.36361739,0.560073894 C2.38086439,0.41741902 2.33590311,0.274239467 2.24020086,0.167052943 C2.1444986,0.05986642 2.00730731,-0.000964906243 1.86361739,7.38937336e-05 Z" id="Path"></path>
                </g>
            </g>
        </g>
    </g>
</svg>