<?xml version="1.0" encoding="UTF-8"?>
<svg width="20px" height="20px" viewBox="0 0 20 20" version="1.1" xmlns="http://www.w3.org/2000/svg" xmlns:xlink="http://www.w3.org/1999/xlink">
    <!-- Generator: Sketch 63.1 (92452) - https://sketch.com -->
    <title>icon_nav_add</title>
    <desc>Created with Sketch.</desc>
    <g id="视觉稿" stroke="none" stroke-width="1" fill="none" fill-rule="evenodd">
        <g id="iPhone-11-Pro备份-12" transform="translate(-60.000000, -56.000000)" fill="#111111" fill-rule="nonzero" stroke="#111111" stroke-width="0.5">
            <g id="扫描-copy" transform="translate(60.000000, 56.000000)">
                <polygon id="Path" points="2.47971712 2.36853446 7.50544377 2.36853446 7.50544377 1.1482734 1.25947513 1.1482734 1.25947513 7.39424204 2.4797362 7.39424204 2.47973622 2.36851538"></polygon>
                <polygon id="Path备份" transform="translate(15.482984, 4.271258) rotate(-270.000000) translate(-15.482984, -4.271258) " points="13.580242 2.36853446 18.6059686 2.36853446 18.6059686 1.1482734 12.36 1.1482734 12.36 7.39424204 13.5802611 7.39424204 13.5802611 2.36851538"></polygon>
                <polygon id="Path" points="0.240225963 9.26684738 0.240225963 10.4871084 19.7360284 10.4871084 19.7360284 9.26684738"></polygon>
                <polygon id="Path" points="17.4965897 17.3854023 12.4708392 17.3854023 12.4708392 18.6056633 18.7168317 18.6056633 18.7168317 12.3596947 17.4965706 12.3596947 17.4965706 17.3854214"></polygon>
                <polygon id="Path备份-2" transform="translate(4.392984, 15.482679) rotate(-270.000000) translate(-4.392984, -15.482679) " points="6.29573858 17.3854023 1.26998808 17.3854023 1.26998808 18.6056633 7.51598057 18.6056633 7.51598057 12.3596947 6.2957195 12.3596947 6.2957195 17.3854214"></polygon>
            </g>
        </g>
    </g>
</svg>