<?xml version="1.0" encoding="UTF-8"?>
<svg width="26px" height="26px" viewBox="0 0 26 26" version="1.1" xmlns="http://www.w3.org/2000/svg" xmlns:xlink="http://www.w3.org/1999/xlink">
    <!-- Generator: Sketch 63.1 (92452) - https://sketch.com -->
    <title>icon_huodongbaoming</title>
    <desc>Created with Sketch.</desc>
    <g id="新增icon（0723）✅" stroke="none" stroke-width="1" fill="none" fill-rule="evenodd">
        <g id="icon汇总" transform="translate(-36.000000, -652.000000)">
            <g id="编组-11" transform="translate(36.000000, 652.000000)">
                <rect id="矩形" fill="#D8D8D8" opacity="0" x="0" y="0" width="26" height="26"></rect>
                <g id="编组-4" transform="translate(1.000000, 1.000000)" fill-rule="nonzero">
                    <path d="M17.9863373,24.2155198 L2.55021271,24.2155198 L2.55021284,24.2155198 C1.17258253,24.2461889 0.030931743,23.1542623 0.000259560712,21.7766201 C5.32907052e-15,21.772208 5.32907052e-15,21.7677956 5.32907052e-15,21.763383 L5.32907052e-15,2.45289117 L5.32907052e-15,2.45289175 C0.0198931923,1.07844926 1.15022576,-0.0196361477 2.52467297,0.000275939861 C2.53318825,0.000399186933 2.54170284,0.000566138435 2.55021649,0.000776785619 L17.9863411,0.000776785619 L17.9863411,0.000776783868 C19.3605069,-0.0332239333 20.5020513,1.05319446 20.5360579,2.42735553 C20.5362686,2.43586908 20.5365588,2.44438367 20.5365588,2.45289904 L20.5365588,5.74487319 L20.5365588,5.74487319 C20.5365588,6.16808309 20.1934797,6.51116221 19.7702698,6.51116221 C19.3470599,6.51116221 19.0039807,6.16808309 19.0039807,5.74487319 L19.0039807,2.45289904 L19.0039807,2.45289927 C18.9811835,1.92183775 18.532192,1.50980652 18.0011281,1.53260374 C17.9961995,1.53281531 17.9912727,1.53306477 17.9863479,1.53335209 L2.55022335,1.53335209 L2.55022333,1.53335209 C2.01957329,1.50239187 1.56430067,1.90746995 1.53333998,2.43811999 C1.53305265,2.44304473 1.53280319,2.44797157 1.53259161,2.45290015 L1.53259161,21.7879155 L1.53259158,21.787915 C1.56866533,22.3149894 2.02285697,22.7144585 2.55022222,22.682942 L17.9863468,22.682942 L17.9863468,22.682942 C18.513712,22.7144604 18.9679063,22.3149894 19.0039798,21.7879174 L19.0039798,19.0047656 L19.0039798,19.0047657 C19.0039797,18.5815558 19.3470589,18.2384767 19.7702688,18.2384767 C20.1934787,18.2384767 20.5365588,18.5815558 20.5365588,19.0047657 C20.5365588,19.0047657 20.5365588,19.0047657 20.5365588,19.0047657 L20.5365588,21.7695425 L20.5365588,21.769544 C20.5098143,23.1472547 19.3712774,24.2424266 17.9935572,24.2156801 C17.9911502,24.2156333 17.9887433,24.2155831 17.9863365,24.2155294 L17.9863373,24.2155198 Z" id="路径" stroke="#000000" stroke-width="0.3" fill="#000000"></path>
                    <path d="M15.479046,7.05063818 L5.05750399,7.05063818 L5.05750395,7.05063818 C4.63429405,7.05063818 4.29121493,6.70755906 4.29121493,6.28434916 C4.29121493,5.86113926 4.63429405,5.51806014 5.05750395,5.51806014 L15.479046,5.51806014 L15.4790459,5.51806014 C15.9022558,5.51806014 16.245335,5.86113926 16.245335,6.28434916 C16.245335,6.70755906 15.9022558,7.05063818 15.4790459,7.05063818 L15.479046,7.05063818 Z" id="路径" fill="#007FFF"></path>
                    <path d="M10.574784,11.9549002 L5.05750399,11.9549002 L5.05750395,11.9549002 C4.63429405,11.9549002 4.29121493,11.6118211 4.29121493,11.1886112 C4.29121493,10.7654013 4.63429405,10.4223222 5.05750395,10.4223222 L10.5747839,10.4223222 L10.5747839,10.4223222 C10.9979938,10.4223222 11.3410729,10.7654013 11.3410729,11.1886112 C11.3410729,11.6118211 10.9979938,11.9549002 10.5747839,11.9549002 L10.574784,11.9549002 Z" id="路径" fill="#007FFF"></path>
                    <path d="M10.574784,16.8591622 L5.05750399,16.8591622 L5.05750395,16.8591622 C4.63429405,16.8591622 4.29121493,16.5160831 4.29121493,16.0928732 C4.29121493,15.6696633 4.63429405,15.3265842 5.05750395,15.3265842 L10.5747839,15.3265842 L10.5747839,15.3265842 C10.9979938,15.3265842 11.3410729,15.6696633 11.3410729,16.0928732 C11.3410729,16.5160831 10.9979938,16.8591622 10.5747839,16.8591622 L10.574784,16.8591622 Z" id="路径" fill="#007FFF"></path>
                    <path d="M21.7975634,7.38829256 L21.9089816,7.39396997 C22.1234369,7.4125067 22.3197452,7.52181503 22.4484502,7.69435634 L24.2875443,10.1464756 C24.5256948,10.4614129 24.4830748,10.906247 24.1894593,11.1702383 L16.8330781,17.9135779 C16.6881221,18.0317076 16.5049732,18.0927571 16.3181307,18.0852267 L13.8660044,18.0852242 C13.6673072,18.0853484 13.4775439,18.0101789 13.3335683,17.8774052 L13.2529722,17.7909699 C13.1117882,17.6155295 13.0556583,17.3865204 13.0997144,17.1656783 L13.7127466,14.7135592 C13.7463942,14.566122 13.8257827,14.433092 13.9395682,14.3334796 L21.2959494,7.59013997 C21.4339864,7.46330585 21.6126556,7.39235475 21.7975634,7.38829256 Z M21.7311915,9.25143466 L15.1656181,15.2775371 L14.8468473,16.5526461 L16.0177372,16.5526461 L22.6446076,10.4774966 L21.7311915,9.25143466 Z" id="形状结合" fill="#000000"></path>
                </g>
            </g>
        </g>
    </g>
</svg>