<?xml version="1.0" encoding="UTF-8"?>
<svg width="26px" height="26px" viewBox="0 0 26 26" version="1.1" xmlns="http://www.w3.org/2000/svg" xmlns:xlink="http://www.w3.org/1999/xlink">
    <!-- Generator: Sketch 63.1 (92452) - https://sketch.com -->
    <title>icon_wallet</title>
    <desc>Created with Sketch.</desc>
    <g id="新增icon（0723）✅" stroke="none" stroke-width="1" fill="none" fill-rule="evenodd">
        <g id="icon汇总" transform="translate(-36.000000, -124.000000)">
            <g id="icon_wallet" transform="translate(36.000000, 124.000000)">
                <rect id="矩形" fill="#D8D8D8" opacity="0" x="0" y="0" width="26" height="26"></rect>
                <g id="费用" transform="translate(1.857143, 1.857143)" fill-rule="nonzero">
                    <path d="M2.8225819,5.58398033 C2.34337762,5.58398033 1.89969493,5.76405612 1.52915074,6.12880286 C1.17505733,6.44417354 1,6.86523515 1,7.32020105 L1,19.006145 C1,19.2370977 1.02210023,19.4386524 1.12295878,19.6382724 C1.2251562,19.8405409 1.3120383,20.0235173 1.48477705,20.1602708 C1.67881384,20.3138853 1.86376099,20.4870914 2.0989745,20.5646794 C2.34567518,20.6460578 2.59067535,20.7423654 2.88018603,20.7423654 L20.3917112,20.7423654 C20.6296787,20.7423654 20.8371254,20.7197816 21.1729183,20.5646808 C21.3669188,20.5006865 21.5191209,20.3598959 21.6468366,20.2335084 C21.7802464,20.1014862 21.9154601,19.9075941 21.988632,19.7395219 C22.0614256,19.5141023 22.0990849,19.288766 22.0990849,19.0631502 L22.0990849,15.2177642 L17.050688,15.2177642 C16.3558192,15.2177642 15.8164844,15.0331202 15.4983805,14.7666837 C15.1780081,14.5213818 15.0049261,14.281959 14.7756546,13.9276648 C14.5953472,13.5708003 14.4953869,13.1263128 14.4953869,12.6786395 C14.4953869,11.9615654 14.7319915,11.4968624 15.252816,10.8847584 C15.716686,10.4257129 16.3630376,10.1395146 17.1082919,10.1395146 L22.1990897,10.1395146 L22.1566692,7.32691905 C22.1584111,6.85528384 21.9766989,6.41927778 21.6468278,6.0928359 C21.1470695,5.5982753 20.2483405,5.58398033 2.8225819,5.58398033 Z" id="路径" stroke="#111110" stroke-width="2"></path>
                    <path d="M16.859329,1.1363667 C16.5509276,0.742372062 16.1911252,0.460946285 15.8313206,0.292091787 L15.7799203,0.292091787 C15.4715189,0.123236805 15.0603156,0.0669518916 14.5977113,0.0106660108 C14.0837082,-0.0456189025 13.5697029,0.123235838 12.9529001,0.460946285 C12.6444987,0.629801267 12.1818944,0.91122656 11.5650894,1.24893556 C10.9482844,1.58664455 10.3828804,1.92435597 9.76607756,2.26206496 C9.04647283,2.6560596 8.32686809,3.10633987 7.55585575,3.50033451 L5.55124224,4.6260352 L18.5041408,4.6260352 L16.8593296,1.13636428 L16.859329,1.1363667 Z" id="路径" fill="#007FFF"></path>
                    <path d="M17.4107143,12.7007974 C17.4107143,12.9508544 17.513515,13.2009093 17.6677171,13.3509426 C17.8733187,13.5509876 18.0789207,13.6510093 18.3359213,13.6510093 C18.5929241,13.6510093 18.8499247,13.5509869 19.0041256,13.3509426 C19.2097271,13.1508977 19.2611284,12.9508523 19.2611284,12.7007974 C19.2611284,12.4507404 19.1583277,12.2006856 19.0041256,12.0506522 C18.798524,11.8506073 18.5929219,11.8005952 18.3359213,11.8005952 C18.0789185,11.8005952 17.8219179,11.9006176 17.6677171,12.0506522 C17.5135159,12.200686 17.4107143,12.4507426 17.4107143,12.7007974 Z" id="路径" fill="#007FFF"></path>
                </g>
            </g>
        </g>
    </g>
</svg>