<?xml version="1.0" encoding="UTF-8"?>
<svg width="16px" height="16px" viewBox="0 0 16 16" version="1.1" xmlns="http://www.w3.org/2000/svg" xmlns:xlink="http://www.w3.org/1999/xlink">
    <!-- Generator: Sketch 63.1 (92452) - https://sketch.com -->
    <title>icon_lajitong</title>
    <desc>Created with Sketch.</desc>
    <g id="列表新增搜索框（0911）✅" stroke="none" stroke-width="1" fill="none" fill-rule="evenodd">
        <g id="进入搜索页面" transform="translate(-92.000000, -199.000000)">
            <g id="编组-4" transform="translate(92.000000, 199.000000)">
                <rect id="矩形" fill="#D8D8D8" opacity="0" x="0" y="0" width="16" height="16"></rect>
                <g id="垃圾桶备份" transform="translate(1.000000, 1.000000)" fill="#999999" fill-rule="nonzero">
                    <path d="M8.44376064,10.8500134 C8.17762908,10.8500134 7.96251008,10.6348944 7.96251008,10.3687629 L7.96251008,5.07500672 C7.96251008,4.80887516 8.17762908,4.59375616 8.44376064,4.59375616 C8.7098922,4.59375616 8.9250112,4.80887516 8.9250112,5.07500672 L8.9250112,10.3687629 C8.9250112,10.6348944 8.7098922,10.8500134 8.44376064,10.8500134 Z M5.55625728,10.8500134 C5.29012572,10.8500134 5.07500672,10.6348944 5.07500672,10.3687629 L5.07500672,5.07500672 C5.07500672,4.80887516 5.29012572,4.59375616 5.55625728,4.59375616 C5.82238884,4.59375616 6.03750784,4.80887516 6.03750784,5.07500672 L6.03750784,10.3687629 C6.03750784,10.6348944 5.82238884,10.8500134 5.55625728,10.8500134 Z M13.2562662,2.66875392 L10.8500134,2.66875392 L10.8500134,1.7062528 C10.8500134,0.910264374 10.2075439,0.26250112 9.41733052,0.26250112 L4.59375616,0.26250112 C3.79776773,0.26250112 3.15000448,0.910264374 3.15000448,1.7062528 L3.15000448,2.66875392 L0.74375168,2.66875392 C0.47762012,2.66875392 0.26250112,2.88387292 0.26250112,3.15000448 C0.26250112,3.41613604 0.47762012,3.63125504 0.74375168,3.63125504 L13.2562662,3.63125504 C13.5223978,3.63125504 13.7375168,3.41613604 13.7375168,3.15000448 C13.7375168,2.88387292 13.5223978,2.66875392 13.2562662,2.66875392 Z M4.1125056,1.7062528 C4.1125056,1.44108374 4.3285871,1.22500224 4.59375616,1.22500224 L9.41733052,1.22500224 C9.68105583,1.22500224 9.88751232,1.43627124 9.88751232,1.7062528 L9.88751232,2.66875392 L4.1125056,2.66875392 L4.1125056,1.7062528 Z M10.3706879,13.7375168 L3.63221754,13.7375168 C2.83622911,13.7375168 2.18846586,13.0897535 2.18846586,12.2937651 L2.18846586,5.06778796 C2.18846586,4.80213765 2.40406611,4.5865374 2.66971642,4.5865374 C2.93536673,4.5865374 3.15096698,4.80213765 3.15096698,5.06778796 L3.15096698,12.2937651 C3.15096698,12.5594154 3.36704848,12.7750157 3.63221754,12.7750157 L10.3706879,12.7750157 C10.6363382,12.7750157 10.8519384,12.5594154 10.8519384,12.2937651 L10.8519384,5.08751923 C10.8519384,4.82186893 11.0670574,4.60626867 11.333189,4.60626867 C11.5993206,4.60626867 11.8144396,4.82186893 11.8144396,5.08751923 L11.8144396,12.2937651 C11.8144396,13.0897535 11.1666763,13.7375168 10.3706879,13.7375168 Z" id="形状"></path>
                </g>
            </g>
        </g>
    </g>
</svg>